<?xml version="1.0" encoding="utf-8"?>
<!-- Generator: Adobe Illustrator 16.0.0, SVG Export Plug-In . SVG Version: 6.00 Build 0)  -->
<!DOCTYPE svg PUBLIC "-//W3C//DTD SVG 1.1//EN" "http://www.w3.org/Graphics/SVG/1.1/DTD/svg11.dtd">
<svg version="1.1" id="Layer_1" xmlns="http://www.w3.org/2000/svg" xmlns:xlink="http://www.w3.org/1999/xlink" x="0px" y="0px"
	 width="1400px" height="980px" viewBox="0 0 1400 980" enable-background="new 0 0 1400 980" xml:space="preserve">
<g>
	<rect fill="#313282" width="1400" height="980"/>
	<polygon fill="#191345" points="1400,18.791 1092.662,326.127 1186.562,326.354 1400,112.911 	"/>
	<polygon fill="#191345" points="0,147.112 111.441,147.112 0,258.556 	"/>
	<polygon fill="#ED0677" points="0,537.609 193.072,344.54 247.792,344.54 0,592.332 	"/>
	<polygon fill="#A5CBEC" points="0,427.896 101.106,326.79 228.218,326.79 0,555.008 	"/>
	<polygon fill="#A5CBEC" points="470.775,0 292.977,177.8 103.582,177.791 281.372,0 	"/>
	<polygon fill="#ED0677" points="102.395,980 607.125,475.272 647.613,475.272 142.885,980 	"/>
	<polygon fill="#191345" points="694.59,387.931 637.425,444.972 677.913,444.972 735.08,387.931 	"/>
	<polygon fill="#ED0677" points="636.319,0 362.579,273.742 307.857,273.742 581.598,0 	"/>
	<polygon fill="#191345" points="458.522,177.797 362.579,273.742 307.857,273.742 403.806,177.794 	"/>
	<polygon fill="#A5CBEC" points="399.627,236.694 362.579,273.742 307.857,273.742 344.91,236.69 	"/>
	<polygon fill="#191345" points="0,942.84 467.571,475.272 483.325,475.272 0,958.596 	"/>
	<polygon fill="#A5CBEC" points="483.325,475.272 467.571,475.272 574.032,368.813 589.786,368.813 	"/>
	<polygon fill="#0088CE" points="0,353.78 325.116,28.663 354.248,28.663 0,382.912 	"/>
	<polygon fill="#0088CE" points="0,922.77 0,735.949 115.807,620.146 302.627,620.148 	"/>
	<polygon fill="#191345" points="713.924,0 93.779,620.146 36.083,620.146 656.229,0 	"/>
	<polygon fill="#191345" points="126.203,980 328.03,778.173 441.488,778.173 239.661,980 	"/>
	<polygon fill="#191345" points="670.583,730.006 792.94,607.647 906.398,607.647 784.041,730.006 	"/>
	<polygon fill="#0088CE" points="324.535,676.343 20.879,980 37.134,980 340.791,676.343 	"/>
	<polygon fill="#A5CBEC" points="445.563,268.362 315.481,398.446 257.785,398.443 387.867,268.362 	"/>
	<polygon fill="#A5CBEC" points="762.318,0 142.174,620.146 115.757,620.146 735.901,0 	"/>
	<polygon fill="#ED0677" points="762.318,0 463.033,299.288 436.616,299.288 735.901,0 	"/>
	<polygon fill="#A5CBEC" points="660.499,789.874 927.732,522.639 913.258,522.639 646.019,789.874 	"/>
	<polygon fill="#A5CBEC" points="175.928,980 464.023,691.908 487.543,691.908 199.449,980 	"/>
	<polygon fill="#A5CBEC" points="0,314.012 93.831,220.183 115.54,220.183 0,335.723 	"/>
	<polygon fill="#191345" points="240.621,0 118.543,122.08 104.68,122.08 226.759,0 	"/>
	<polygon fill="#191345" points="555.008,0 163.192,391.819 36.083,391.812 427.896,0 	"/>
	<polygon fill="#A5CBEC" points="79.762,0 0,79.765 0,173.604 173.601,0 	"/>
	<polygon fill="#ED0677" points="433.316,86.791 73.708,446.4 51.998,446.4 411.608,86.791 	"/>
	<polygon fill="#ED0677" points="842.354,422.465 698.03,566.789 689.316,566.789 833.639,422.465 	"/>
	<polygon fill="#191345" points="276.105,980 284.819,980 640.089,624.729 631.374,624.729 	"/>
	<polygon fill="#191345" points="1400,195.91 1068.164,527.746 1076.879,527.746 1400,204.625 	"/>
	<polygon fill="#191345" points="1144.666,522.639 1021.459,645.847 1030.174,645.847 1153.381,522.639 	"/>
	<polygon fill="#191345" points="687.306,980 696.021,980 753.795,922.225 745.08,922.225 	"/>
	<polygon fill="#ED0677" points="539.568,980 1400,119.568 1400,110.854 530.855,980 	"/>
	<polygon fill="#0088CE" points="1400,689.025 1400,680.312 1100.312,980 1109.025,980 	"/>
	<polygon fill="#ED0677" points="512.441,0 437.568,74.878 427.308,74.878 502.182,0 	"/>
	<polygon fill="#0088CE" points="404.958,210.059 394.7,210.059 546.588,58.17 556.847,58.17 	"/>
	<polygon fill="#191345" points="179.852,227.732 169.593,227.732 268.364,128.961 278.623,128.961 	"/>
	<polygon fill="#ED0677" points="142.535,122.08 132.276,122.08 201.319,53.035 211.578,53.035 	"/>
	<polygon fill="#A5CBEC" points="579.326,475.272 336.878,717.721 328.165,717.721 570.612,475.272 	"/>
	<polygon fill="#0088CE" points="825.58,475.272 947.23,353.623 938.518,353.623 816.867,475.272 	"/>
	<polygon fill="#191345" points="311.365,313.935 229.087,396.214 220.373,396.214 302.651,313.935 	"/>
	<polygon fill="#A5CBEC" points="0,625.301 229.087,396.214 220.373,396.214 0,616.587 	"/>
	<polygon fill="#ED0677" points="13.664,391.812 89.346,316.131 98.059,316.131 22.376,391.812 	"/>
	<polygon fill="#A5CBEC" points="433.316,86.791 380.364,139.749 358.653,139.749 411.608,86.791 	"/>
	<polygon fill="#0088CE" points="745.626,257.337 434.736,568.227 413.026,568.227 723.918,257.337 	"/>
	<polygon fill="#191345" points="1013.635,170.254 816.51,367.378 802.743,367.378 999.87,170.254 	"/>
	<polygon fill="#A5CBEC" points="760.568,170.254 703.082,227.739 689.316,227.739 746.803,170.254 	"/>
	<polygon fill="#ED0677" points="1072.748,0 929.994,142.755 918.961,142.755 1061.717,0 	"/>
	<polygon fill="#ED0677" points="0,150.27 91.001,59.267 145.722,59.267 0,204.99 	"/>
	<polygon fill="#0088CE" points="123.901,0 64.635,59.267 42.924,59.267 102.191,0 	"/>
	<polygon fill="#A5CBEC" points="0,896.547 228.658,667.889 238.026,667.889 0,905.918 	"/>
	<polygon fill="#ED0677" points="254.153,980 350.601,883.555 359.969,883.555 263.522,980 	"/>
	<polygon fill="#A5CBEC" points="0,283.71 93.662,190.048 103.03,190.048 0,293.077 	"/>
	<polygon fill="#0088CE" points="0,174.238 59.09,115.147 68.458,115.147 0,183.604 	"/>
	<polygon fill="#0088CE" points="0,467.133 467.136,0 477.599,0 0,477.601 	"/>
	<polygon fill="#191345" points="343.569,530.469 152.71,721.332 99.741,721.332 290.605,530.469 	"/>
	<polygon fill="#191345" points="996.188,980 1400,576.181 1400,507.734 927.732,980 	"/>
	<polygon fill="#ED0677" points="152.708,721.332 95.64,778.402 42.67,778.402 99.741,721.332 	"/>
	<polygon fill="#ED0677" points="430.933,443.108 373.864,500.178 320.895,500.178 377.965,443.108 	"/>
	<polygon fill="#A5CBEC" points="478.426,395.616 449.045,424.999 396.076,424.999 425.458,395.616 	"/>
	<polygon fill="#191345" points="615.879,258.164 523.932,350.111 470.963,350.111 562.911,258.164 	"/>
	<polygon fill="#ED0677" points="335.724,0 247.854,87.872 226.143,87.872 314.014,0 	"/>
	<polygon fill="#191345" points="219.364,116.358 73.708,262.016 51.998,262.016 197.655,116.358 	"/>
	<polygon fill="#0088CE" points="395.076,318.848 264.995,448.932 207.298,448.932 337.38,318.848 	"/>
	<polygon fill="#ED0677" points="0,688.768 127.887,560.879 136.504,560.879 0,697.383 	"/>
	<polygon fill="#A5CBEC" points="449.336,0 271.539,177.8 264.504,177.8 442.303,0 	"/>
	<polygon fill="#191345" points="0,514.607 44.4,470.204 105.112,470.204 0,575.316 	"/>
	<polygon fill="#A5CBEC" points="0,764.885 63.101,701.785 86.62,701.785 0,788.406 	"/>
</g>
</svg>
