<?xml version="1.0" encoding="utf-8"?>
<!-- Generator: Adobe Illustrator 21.0.0, SVG Export Plug-In . SVG Version: 6.00 Build 0)  -->
<svg version="1.1" id="Layer_1" xmlns="http://www.w3.org/2000/svg" xmlns:xlink="http://www.w3.org/1999/xlink" x="0px" y="0px"
	 width="1400px" height="980px" viewBox="0 0 1400 980" enable-background="new 0 0 1400 980" xml:space="preserve">
<g>
	<g>
		<g>
			<rect id="XMLID_4_" fill="#4E2730" width="1400" height="980"/>
		</g>
	</g>
	<g>
		<rect x="551" y="63.9" fill="#C1A574" width="138" height="345.2"/>
		<rect x="711.1" y="63.9" fill="#C1A574" width="138" height="345.2"/>
		<rect x="551" y="431.8" fill="#C1A574" width="138" height="345.2"/>
		<rect x="711.1" y="431.8" fill="#C1A574" width="138" height="345.2"/>
	</g>
	<g>
		<path fill="#AF5031" d="M418.4,786.4c0,0,3.9-1.4,18.2,4.6c14.3,6,26.7,4.1,26.7,4.1l16.5,4.9c0,0-12.5,12-9.7,22
			c2.8,10,7,12.5,2.9,23.8s-29,77.2-29,77.2l-35.8-141L418.4,786.4z"/>
		<rect x="210.7" y="13.8" fill="#AF5031" width="119.1" height="713.4"/>
		<g>
			<path fill="#4E2730" d="M357.6,541c-1.5-13,18.7-20.6,29.2-19.8c13.4,1,24.5,12.3,31.4,22.3c19.8,28.7,15.4,66,23.7,97.9
				c3.2,12.2,6.8,25.9,12.2,37c7.8,16.1,22.6,27.3,30.6,44.7c7.6,16.6,19.7,46.5,8,63.9c-18.9,28.1-38.7-26.2-45.2-39.2
				c-16-32-36-61.7-52.6-93.5c-10.7-20.6-29.1-41.5-34.3-64.2C356.7,573.6,356.9,555,357.6,541z"/>
			<path fill="#FBC0A2" d="M485.8,756.8c2.6-3.5,5.2-7.1,7.7-10.7c-2.6-8.6-6.1-16.7-8.9-22.9c-8-17.4-22.9-28.7-30.6-44.7
				c-5.4-11.2-9-24.8-12.2-37c-5.7-22.2-5.4-47-11.3-69.7c0.3,2.4,0.5,4.9,0.2,7.3c-0.8,7.5-3.4,48-12.3,59.2
				c6.4-1,11.7,6.1,13.8,11.5c2.1,5.4-2.4,12.5,0.2,17.6c1.3,2.5,5.8,2.8,6.6,5.3c1.5,4.6-4.9,8.3-8.3,11c-6,4.8-9.4,10,0.9,11.4
				c8.7,1.1,13.8-3.8,20.2,2.6c5.3,5.3,10,11.4,15.2,17c8.4,9.1,12.2,18.4,15.7,30.1C483.5,747.4,484.5,751.7,485.8,756.8z"/>
			<g>
				<path fill="#A76F54" d="M544.5,771.6c-2.5-8.9-8.8-16.4-16.8-20.9c-6.9-3.8-15.1-5.3-22.7-7.3c-26.5-6.9-53.1-13.1-79.9-18.5
					c-16.1-3.3-32.2-6.7-48.5-8.6c-7.6-0.9-15.5-2.4-23.1-2.3c-7.1,0-14,0.7-19.5,5.5c-1.3-0.3-2.6-0.6-3.8-0.8
					c-11.7-2.1-22.8-1.6-34.5,0.2c-6.4,0.9-12.6,2.4-18.9,3.6c-0.8,0-1.6,0.1-2.4,0.1c-11.7-2.8-24.9,1.9-32.1,11.3
					c-1.9-0.8-3.9-1.3-5.9-1.5c-2.1,11.6-5.3,23.8,6.5,31.4c7.4,4.8,19.1-1.5,23.9,1.4c7,4.2,2.6,14.8,2.5,22.4
					c18,1.8,42.6-16.8,59.5-22.1c0.7,8-3.8,14.1-4,22.1c19,0.9,38.1-8.4,56.5-5.5c-0.2,7.6-5.5,14.4-9.8,20.6
					c6.8-3,16.4-6.9,21.9-1.8c-6.4,4.4-14.9,7.1-17.7,13.6c4.7-0.1,10,0.8,14.7,0.5c-0.4,6.6-7.7,7.4-7.5,13.3
					c0.1,1.5,9.5,15.8,11,17.7c4.4,5.4,13.7,8.9,15.8,16.6c1.7,6.3-2.8,12.6-2.1,18.9c0.9,8.4,6.7,19.6,9.9,27.5
					c8.3,20.3,25,36.6,21,58.9c-0.6,3.1-1.5,5.6-2.7,7.6c3.2,1,6.6,1.3,10.1,0.5c9.8,3.8,23.7,1.5,28.4-9.1
					c11.6-26.1,22.8-52.3,33.5-78.8c5.1-12.6,10.1-25.3,15-38c2.3-6.1,4.7-12.1,6.9-18.2c0.2-0.5,0.3-0.9,0.4-1.2
					c0.1-0.2,0.2-0.5,0.3-0.7c0.5-1.2,1-2.4,1.5-3.6c1.5-3.6,3-7.1,4.5-10.7C542.6,801.4,549,787.3,544.5,771.6z M509.4,823.7
					c-3.3,12.4-5.2,30.7-11.5,41.2c-3,4.8-5.1,4.7-8.7,8.1c-11.3,11-5.1,2.2-10.2,16.7c-4.8,13.6-16.5,23.6-21.4,37.4
					c-2.6-5.9-4.6-12.3-6-18.6c-0.2,0.4-0.3,0.8-0.5,1.1c-9.1-25.5-18.1-51-26.1-76.9c-3-9.7-6.1-19.5-9.2-29.2
					c-2.2-7-4.2-14.7-7.5-21.5c-3.5-4.5-7.1-9-10.8-13.6c-0.7-0.5-1.4-1-2.1-1.5c0.4,0.1,0.7,0.1,1.1,0.2c-0.5-0.7-1-1.3-1.5-2
					c0.4,0,0.7,0,1.1,0c-5.2-2.1-10.6-4.5-16.1-5.9c-13.6-3.3-26.4-8.6-40.1-11.7c-10.3-2.4-20.1-2.9-29.2-8
					c8.5-2.2,19.4,0.1,27.6,2.1c12.9,3.2,25.8,5.8,38.6,9.4c3.9,1.1,21.1,7.5,34.1,14.4c15.6,0.6,30.6,2,46.7,2.9
					c8.7,24.4,52.6-4.2,69.1-1.5c-4.1,8.7-13.5,13.1-18.9,20.8c7.5,3.1,15,3.7,20.6,9C516.4,807.1,514.2,806,509.4,823.7z"/>
			</g>
			<path fill="#CD7F62" d="M499.6,762.9c-1.6-3.3-3.1-6.6-4.6-10c-1.5-3.3-0.9-4.6-4.7-5.6c-10.7-2.7-22.7-6.1-33.3-6.2c0,0,0,0,0,0
				c-2.5-0.7-5.1-0.3-7.4,0.9c-0.8-0.4-1.6-0.7-2.6-0.8c-9-0.8-10.7,11.8-5.7,17.1c2.4,2.6,6.3,3.7,9.2,5.6
				c3.8,2.5,7.2,5.7,10.6,8.7c0.4,0.3,0.8,0.6,1.2,0.9c1.9,3.8,3.9,7.6,6.8,10.8c3.4,3.7,8.9,2.3,8.8-3.4c1.5,0.3,3,0.5,4.5,0.4
				c2.6-0.2,2.9-1.1,4.7-2.1c1.4-0.9,0.6-0.3,2.3-0.8c1.4-0.4,2.8-0.2,4-1.2c0.1,1,0.7,1.7,2.2,1.5c2-0.3,4.9-6.7,5.7-8.5
				C502.6,767.4,500.9,765.7,499.6,762.9z M494.4,772.9c-0.8-3.2-3.8-6.7-5.1-8.8c0.3-0.3,0.6-0.6,0.9-0.7c1.2,1.8,3.1,2.8,4.2,4.6
				C496,770.4,495.5,770.6,494.4,772.9z"/>
			<path fill="#AF5031" d="M487.6,760.6c0-2.6-1.6-5.7,0.1-8.3c1.1-1.7,3.3-2.9,5.4-3.7c-0.5-0.5-1.3-0.9-2.7-1.2
				c-10.7-2.7-22.7-6.1-33.3-6.2c0,0,0,0,0,0c-2.5-0.7-5.1-0.3-7.4,0.9c-0.8-0.4-1.6-0.7-2.6-0.8c-9-0.8-10.7,11.8-5.7,17.1
				c2.4,2.6,6.3,3.7,9.2,5.6c3.8,2.5,7.2,5.7,10.6,8.7c0.4,0.3,0.8,0.6,1.2,0.9c1.4,2.8,2.8,5.5,4.6,8.1c0.4-0.2,0.8-0.4,1.2-0.7
				c1.3-1,0.8-2.6,2.9-3.3c1-0.3,2.6,0.5,3.5-0.1c1.1-0.8,0.6-3.6,1.6-4.9c1.2-1.5,2.4-1,3.8-1.7c2.7-1.3,1.9-0.4,1.8-3.3
				C481.5,762.9,482.3,761,487.6,760.6z"/>
			<path fill="#FBC0A2" d="M463,745.8c-1.9-8.1-9.5-11.7-16.4-14.7c-9.3-4.1-18.7-8.2-28-12.4c-10.9-6.1-21.6-12.8-31.4-20.5
				c-3-2.4-6-4.9-8.8-7.5c-1.2-2.3-2.4-4.6-3.6-6.8c8.1-15.7,14.2-25.8,30.2-41.2c21.4-20.6,23.3-45.6,22-77.2
				c-1.3-34.9-28.6-62.5-48-64.3c-14.3,0.1-22.2,4.4-34.2,11.8c-10.4,6.3-22.6,9.7-32.1,17.3c-12,9.4-18.5,24.1-26.4,36.8
				c-11.3,18.2-26.2,34.9-35.4,54.2c-8.4,17.4-12.7,35-17,53.6c-3.4,14.7-23.5,62.6-23,85.1c7.5-1.3,15.2-2,22.6-2.6
				c15.4-1.3,30.8-1.5,46.2-2c15.3-0.5,30.7-1.1,45.9-3.5c7-1.1,47-18.5,47.2-19.6c0.3-1.4,0.3-2.8,0.3-4.1c2,1.5,4,2.9,6.1,4
				c5.2,2.9,10.8,3.7,16.6,4.7c6.7,1.2,13.4,2.6,20.1,3.5c1.2,0.2,2.3,0.1,3.2-0.2c2.9,1.5,5.8,3,8.7,4.7c5,2.9,10.7,6.5,12.7,12.2
				c1.4,4.2,4.6,6.4,8.9,6.8C458.5,764.5,465,754.3,463,745.8z"/>
			<path fill="#4E2730" d="M444.4,754.5c-0.1-0.2-0.2-0.4-0.3-0.7c-0.3-0.9-0.9-1.8-1.3-2.6c-1.2-2.1-2.6-3.7-4.5-5.2
				c-3.7-2.9-8.3-4.8-12.7-6.4c-8.6-3.3-17.6-4.7-26.4-7.1c-4.1-1.1-8.2-2-12.3-2.7c-3-1.3-6-2.8-8.8-4.5c-1.3-0.8-2.5-1.6-3.8-2.4
				c-1.9-2.7-3.8-5.5-5.7-8.2c-4.5-6.3-9.3-12.5-14.1-18.6c-4-5-11.3-10.4-11.9-16.9c9.9-1.3,22.1,7.6,31.4,3.3
				c-9.1-9.6-25.6-11.6-34.5-22c-3.3-3.9-4.5-8.4-6.1-13.3c-3.5-10.5-8-19.1-13-28.7c-5.7-10.8,5.7-17.6,7.1-28.9
				c0.7-5.5-3.2-14,1.1-18.8c4.8-5.3,14.9-1.6,20.1,1.8c7.7,5.1,12.7,18.1,21.2,20.5c4.7-11.2-6-22.9-13.9-29.3
				c-5.8-4.7-12-8.4-18.6-11.6c-0.7-1.3-1.4-2.6-1.2-3.7c2.6-0.1,5-0.2,7.8-0.1c2.9,0.2,5.6-0.1,8.4,1c2.8,1,5.1,2.8,7.4,4.6
				c5.8,4.9,15.6,17.5,24.4,14.2c0.6-0.2,0.8-0.8,0.5-1.3c-1.5-2.7-3.9-4.5-6.3-6.2c-3.2-2.2-6.1-4.8-8.9-7.5
				c-4.7-4.5-9.4-9-14.6-13c1.3-0.5,2.5-1.1,3.6-2c7.3-5.4,11.7-12.3,21.5-10.7c10.7,1.8,17.7,8,23.7,16.5c2.9,4,13,19,16.9,9.7
				c2.6-6.1-5.5-17.5-6-24c0.8-1.9-1-3.5-2.8-6.4c-4.3-7.2-8.8-16.9-15.3-22.3c-23.9-19.5-62.5,0.1-81,18.4
				c-17.1,17-30.5,39.4-44.5,59.1C255.6,600,239.9,621.1,233,647c-5.9,22.1-11.3,44.3-17.3,66.4c-4.8,17.5-11.6,40.8-7.2,59
				c4.7,0,7.2-4.4,10-7.5c6.7-7.2,12.9-15,19.8-21.9c9.3-9.4,21.1-16.7,32-24c6.3-4.2,13.7-8,16.6-15.2c3-7.7,4.1-17.4,6.1-25.4
				c1.6-6.5,5.4-14,3.7-20.6c-14.2-0.6-27.1,9.8-41.8,5.2c12.3-10.7,28-17.1,40.2-28.6c5,5.6,6.5,17,9.6,24
				c6.8,15.2,14,30.3,21.5,45.2c4.2,8.3,6.4,14.4,13.6,20.2c0.8,0.6,1.6,1.3,2.4,1.9c1.9,0.3,34.8,17.8,51.4,19.3
				c2.8,0.8,5.7,1.4,8.6,2c8.7,1.5,19.5,1.7,25.3,9.4c3,4,5.4,8.1,10.3,10c3.9,1.5,7.5,1.2,10.9-0.7c0.3-0.1,0.6-0.3,0.8-0.5
				c0,0,0,0,0,0c0.4-0.3,0.8-0.6,1.2-0.9C455.7,760.2,449.8,752.2,444.4,754.5z"/>
			<path fill="#CD7F62" d="M403.8,448.7c1.1-10.9,17.8-16.3,26.7-18.2c14.7-3.2,29.4,6.6,41,14.4c10,6.8,11,12.7,13.2,23.5
				c0.6,3.1,2.2,7.9,1.1,11.2c-1.2,3.6-3.8,3.9-3.7,8.6c0.1,5,27,20.3,1.7,21.2c-2,7.3-4.2,21.9-12.2,24.9
				c-5.7,2.1-12.8-1.4-18.5-2.2c-6.9-1-15.2-2-21.9,0.6c-8.3,3.2-15.2,8.7-21,15.3c-5.7,6.5-8.4,16.4-18.2,7
				c-10.1-9.7-19.8-29.5-7.3-40.1c6.2-5.2,14.6-6.1,19.4-13.4c5.2-8.1,1.9-17.3,1.3-26.2c-0.4-6-1.1-11.9-1.6-17.9
				C403.2,450.9,404.6,451.1,403.8,448.7z"/>
			<g>
				<g>
					<path fill="#AF5031" d="M469,506.3c0-4.4-1.9-6.6-4.3-9.8c-1.9-2.5-1.5-4.1-0.3-7c2.7-6.2,5.4-11.1,6.7-17.9
						c1.2-6.4,0.7-13,0.6-19.5c-0.1-5.9-0.3-7.5-5.3-10.6c-10.6-6.7-22.9-13.8-35.9-11c-8.9,1.9-25.6,7.4-26.7,18.2
						c0.8,2.4-0.6,2.2,0,8.8c0.5,6,1.2,11.9,1.6,17.9c0.6,8.9,3.9,18.1-1.3,26.2c-4.7,7.4-13.4,8-19.4,13.4
						c-16.5,15.1,6.8,39.7,7.3,40.1c0.6,0.5,1.1,1,1.6,1.4c0.9-1.8,2.5-3.4,3.8-4.9c6.2-7.2,12.1-16.1,19.3-22.2
						c3.8-3.2,6.3-6.6,10.5-2.6c1.8,1.8,3.3,3.8,4.5,5.9c6.6-2.4,14.7-1.5,21.5-0.5c5.7,0.8,12.8,4.4,18.5,2.2
						c0.5-0.2,1.1-0.5,1.6-0.8c-0.2-0.6-0.4-1.2-0.5-1.6c-0.4-1.1-0.6-2.3-0.8-3.4c-0.4-1.2-0.8-2.5-1.3-3.9
						C468.1,518.1,469,512.9,469,506.3z"/>
				</g>
				<path fill="#AF5031" d="M492,507.3c-2.9-0.2-6.5-1.5-9.4-1c-3.4,0.6-2.8,2.3-2.7,5.7c0.1,2.4,0.7,4.6,1.4,6.7
					c1-3.4,1.7-6.8,2.3-9.3c5.1-0.2,8-0.9,9.5-2.1C492.9,507.4,492.5,507.4,492,507.3z"/>
			</g>
			<path fill="#4E2730" d="M481.6,423c-6.3-1.5-12.7-1.2-18.9-3.3c-7.4-2.4-13.8-6.7-21.3-8.8c-4.3-1.2-32.3-3.3-26.8,7.3
				c-9.6,2.7-20.1,1.9-27.2,10.4c-14,16.6,3.8,41.1,9.2,57.1c4,11.9,34.1,44.5,43,22c-19.3,1.1-9.5-32.2,4.3-14.9
				c-0.9,1.4-2,3.2-2.6,4.6c1.4-0.2,3.2,0.4,4.7,0.2c-0.5,1.4-0.7,3.4-1.5,4.7c10.1-4,4.9-12,6.3-20.7c0.9-5.2,2.5-4.4,6.9-7.2
				c3-1.9,5.7-4.2,8-6.9c-1.4,4.5-3,7.1-6.4,10.2c6.5-2.4,12.7-5.5,18.6-9.6C514.5,442.3,493.8,425.9,481.6,423z"/>
			<path fill="#4E2730" d="M379.7,631.4c-0.6-5.7-5.4-8.6-11.5-9c4.5-10.2,19.6-17.7,20.6-29.6c-9.3,2.3-22.2,14-25.3,20.8
				c-12.6,7.8,3.9,40.7,10.2,49.4C376.2,650.6,358.1,633.7,379.7,631.4z"/>
			<g>
				<path fill="#D59B67" d="M427.9,420.4c-1.1-4.8-7.4-5.8-13-7.2c-1.2,1.2-1.6,2.9-0.4,5.1c-1,0.3-2.1,0.5-3.1,0.7
					C417.2,419.9,422.8,420.7,427.9,420.4z"/>
				<path fill="#D59B67" d="M481.6,423c-6.3-1.5-12.7-1.2-18.9-3.3c-6.9-2.3-13-6.2-19.9-8.3c-1.9,0.6-3.3,1.7-3.7,4.1
					c-0.8,4.8,5.5,8.9,8.5,11.6c10.4,9.6,13.9,18.7,5.5,31.7c0.1-4.8-0.1-9.8-2.9-13.7c-2.5,12.5-5.9,24.8-16.9,32.6
					c-8.3,5.9-20.2,6.8-28.7,0.8c3.4,9.8,20.8,11.9,28.7,7.5c-0.5,0.4-0.9,0.9-1.4,1.2c3.9-2,6.8-5.9,10.5-7.8
					c0.6,3.6-1.2,6.5-3.2,9.4c1.4,0.8,3,2.1,4.5,4.1c-0.9,1.4-2,3.2-2.6,4.6c1.4-0.2,3.2,0.4,4.7,0.2c-0.5,1.4-0.7,3.4-1.5,4.7
					c10.1-4,4.9-12,6.3-20.7c0.9-5.2,2.5-4.4,6.9-7.2c3-1.9,5.7-4.2,8-6.9c-1.4,4.5-3,7.1-6.4,10.2c6.5-2.4,12.7-5.5,18.6-9.6
					C514.5,442.3,493.8,425.9,481.6,423z"/>
			</g>
		</g>
		<path fill="#AF5031" d="M406.9,941c-3.9-10.6-12.7-18.9-16.4-29.5c-2.8-7.8-2.5-15.3-6.9-23.1c-5.5-9.8-13-18.6-17.6-29
			c-2.1-4.8-3.8-9.8-4.7-14.7c-0.6-3.2-1.9-11.5-4.2-14c-1.8-2-7.1-1.1-9.5-3.2c-1.6-1.3-0.9-5.5-2.8-7.3
			c-3.3-3.2-10.4-4.8-14.7-5.2c-10.1-1.1-27.8,4.6-34-4c-3,0.4-8.2-0.1-14-0.3v152.2c16.5,1.1,33,2.5,49.5,4.1
			c25.7,2.5,58.2,4.2,82.1-6C410.8,954.6,409.3,947.6,406.9,941z"/>
		<g>
			<g>
				<path fill="#AF5031" d="M1105.7,748.8c-4.8,0-9.6,0-14.4,0c-0.3,0-0.6,0-0.9,0V622.3h20.8v126.4
					C1109.4,748.8,1107.5,748.8,1105.7,748.8z"/>
				<path fill="#AF5031" d="M1111.3,896.3V791.5c-6.9,0.1-13.7,0.1-20.5-0.1c-0.1,0-0.2,0-0.3,0v77.2L1111.3,896.3z"/>
				<path fill="#AF5031" d="M1007.2,714.4c-4.3,4.8-8.7,9.6-12.8,14.6V622.3h12.8V714.4z"/>
				<path fill="#AF5031" d="M989.6,515.5H987c-13.7,0-24.9,7.7-24.9,17.3v60.7c0,9.5,11.1,17.3,24.9,17.3h135.5L989.6,515.5z"/>
			</g>
			<path fill="#AF5031" d="M879.7,755.6h152c-2.3,0-4.2,4.2-4.2,9.4v13.7c0,5.2,1.9,9.4,4.2,9.4h-152c-5.8,0-10.5-4.2-10.5-9.4V765
				C869.1,759.8,873.8,755.6,879.7,755.6z"/>
			
				<rect x="1000.8" y="795.4" transform="matrix(-1 -6.122626e-11 6.122626e-11 -1 2021.4167 1724.2804)" fill="#AF5031" width="19.9" height="133.5"/>
			<polygon fill="#AF5031" points="914.6,880.6 914.6,795.4 897.1,795.4 897.1,840.5 			"/>
		</g>
	</g>
	<path fill="#FFFFFF" d="M0,0v980h1400V0H0z M1371.7,891.9c0,37.8-30.6,68.4-68.4,68.4H96.6c-37.8,0-68.4-30.6-68.4-68.4V88.1
		c0-37.8,30.6-68.4,68.4-68.4h1206.7c37.8,0,68.4,30.6,68.4,68.4V891.9z"/>
</g>
</svg>
