<?xml version="1.0" encoding="utf-8"?>
<!-- Generator: Adobe Illustrator 21.0.0, SVG Export Plug-In . SVG Version: 6.00 Build 0)  -->
<svg version="1.1" xmlns="http://www.w3.org/2000/svg" xmlns:xlink="http://www.w3.org/1999/xlink" x="0px" y="0px"
	 viewBox="0 0 1400 980" enable-background="new 0 0 1400 980" xml:space="preserve">
<g id="Layer_1" display="none">
	<g display="inline">
		<g>
			
				<path fill="none" stroke="#0E1235" stroke-width="16" stroke-linecap="round" stroke-linejoin="round" stroke-miterlimit="10" d="
				M700,787.11h283.234c9.734,0,14.438-9.734,7.328-15.162L700,550.122L409.438,771.948c-7.111,5.428-2.406,15.162,7.328,15.162H700
				z"/>
			
				<path fill="none" stroke="#0E1235" stroke-width="16" stroke-linecap="round" stroke-linejoin="round" stroke-miterlimit="10" d="
				M406.576,775.525V462.622c0-6.999,9.392-11.293,16.699-7.635l242.397,121.342"/>
			
				<path fill="none" stroke="#0E1235" stroke-width="16" stroke-linecap="round" stroke-linejoin="round" stroke-miterlimit="10" d="
				M993.424,775.525V462.622c0-6.999-9.391-11.293-16.699-7.635L734.328,576.329"/>
		</g>
		
			<circle fill="none" stroke="#0E1235" stroke-width="13" stroke-linecap="round" stroke-linejoin="round" stroke-miterlimit="10" cx="700" cy="626.404" r="23.875"/>
		
			<polyline fill="none" stroke="#0E1235" stroke-width="16" stroke-linecap="round" stroke-linejoin="round" stroke-miterlimit="10" points="
			488.511,487.643 488.511,192.89 911.489,192.89 911.489,487.643 		"/>
		
			<line fill="none" stroke="#0E1235" stroke-width="16" stroke-linecap="round" stroke-linejoin="round" stroke-miterlimit="10" x1="410.613" y1="455.683" x2="488.511" y2="375.618"/>
		
			<line fill="none" stroke="#0E1235" stroke-width="16" stroke-linecap="round" stroke-linejoin="round" stroke-miterlimit="10" x1="989.387" y1="455.683" x2="911.489" y2="375.618"/>
	</g>
	<g display="inline">
		
			<polyline fill="none" stroke="#0E1235" stroke-width="16" stroke-linecap="round" stroke-linejoin="round" stroke-miterlimit="10" points="
			406.58,549.26 295.41,357.71 296.28,257.72 383.53,306.56 447.86,417.4 		"/>
		
			<line fill="none" stroke="#0E1235" stroke-width="16" stroke-linecap="round" stroke-linejoin="round" stroke-miterlimit="10" x1="488.68" y1="487.73" x2="488.51" y2="487.44"/>
		
			<polyline fill="none" stroke="#0E1235" stroke-width="10" stroke-linecap="round" stroke-linejoin="round" stroke-miterlimit="10" points="
			383.53,306.562 372.104,351.154 345.34,342.253 339.792,369.908 295.405,357.709 		"/>
		
			<ellipse transform="matrix(0.8649 -0.502 0.502 0.8649 -98.5751 192.8475)" fill="#0E1235" cx="308.937" cy="279.532" rx="12.474" ry="12.474"/>
		
			<line fill="none" stroke="#0E1235" stroke-width="10" stroke-linecap="round" stroke-linejoin="round" stroke-miterlimit="10" x1="406.58" y1="484.98" x2="339.79" y2="369.91"/>
		
			<line fill="none" stroke="#0E1235" stroke-width="10" stroke-linecap="round" stroke-linejoin="round" stroke-miterlimit="10" x1="424.49" y1="441.41" x2="372.1" y2="351.15"/>
	</g>
	<g display="inline">
		
			<polyline fill="none" stroke="#0E1235" stroke-width="16" stroke-linecap="round" stroke-linejoin="round" stroke-miterlimit="10" points="
			952.14,417.4 1016.47,306.56 1103.72,257.72 1104.59,357.71 993.42,549.26 		"/>
		
			<line fill="none" stroke="#0E1235" stroke-width="16" stroke-linecap="round" stroke-linejoin="round" stroke-miterlimit="10" x1="911.49" y1="487.44" x2="911.32" y2="487.73"/>
		
			<polyline fill="none" stroke="#0E1235" stroke-width="10" stroke-linecap="round" stroke-linejoin="round" stroke-miterlimit="10" points="
			1016.47,306.562 1027.896,351.154 1054.66,342.253 1060.208,369.908 1104.595,357.709 		"/>
		
			<ellipse transform="matrix(0.502 -0.8649 0.8649 0.502 301.6161 1082.8569)" fill="#0E1235" cx="1091.063" cy="279.532" rx="12.474" ry="12.474"/>
		
			<line fill="none" stroke="#0E1235" stroke-width="10" stroke-linecap="round" stroke-linejoin="round" stroke-miterlimit="10" x1="1060.21" y1="369.91" x2="993.42" y2="484.98"/>
		
			<line fill="none" stroke="#0E1235" stroke-width="10" stroke-linecap="round" stroke-linejoin="round" stroke-miterlimit="10" x1="1027.9" y1="351.15" x2="975.51" y2="441.41"/>
	</g>
	
		<line display="inline" fill="none" stroke="#0E1235" stroke-width="10" stroke-linecap="round" stroke-linejoin="round" stroke-miterlimit="10" x1="436.333" y1="519" x2="436.333" y2="650.333"/>
	
		<line display="inline" fill="none" stroke="#0E1235" stroke-width="10" stroke-linecap="round" stroke-linejoin="round" stroke-miterlimit="10" x1="436.333" y1="673" x2="436.333" y2="689.667"/>
	
		<line display="inline" fill="none" stroke="#0E1235" stroke-width="10" stroke-linecap="round" stroke-linejoin="round" stroke-miterlimit="10" x1="536.124" y1="762.333" x2="863.876" y2="762.333"/>
	<g display="inline">
		<path fill="#0E1235" d="M635.744,262.563c-0.86,3.442-2.488,5.451-4.876,6.024c-6.217,1.531-17.022,3.539-32.416,6.024
			c-1.914,23.81-2.869,43.653-2.869,59.525c0,6.024,0.094,11.954,0.287,17.786c0.094,1.815,0,3.203-0.287,4.16
			c-0.48,1.528-1.435,2.246-2.869,2.151c-2.775-0.096-5.07-1.269-6.885-3.514c-1.817-2.248-2.821-4.756-3.012-7.53
			c-0.193-3.537-0.287-7.266-0.287-11.188c0-6.312,0.43-16.302,1.291-29.978c0.86-13.1,1.242-23.093,1.147-29.978
			c-2.582-0.19-6.167,0.049-10.758,0.717c-5.26,0.767-8.893,1.147-10.901,1.147c-4.684,0-8.509-1.253-11.475-3.761
			c-1.147-2.505-1.721-3.808-1.721-3.904c0-0.674,0.336-1.398,1.004-2.169c3.062-1.06,9.323-2.023,18.79-2.893
			c8.319-0.867,14.534-2.409,18.646-4.628c3.346,1.147,7.171,1.721,11.475,1.721c4.303,0,8.413-0.524,12.335-1.578
			c1.147-0.094,4.063-0.765,8.749-2.008c3.443-0.86,6.312-1.147,8.606-0.86c1.721,0,2.438,0.717,2.151,2.151
			C634.453,259.982,635.744,260.842,635.744,262.563z"/>
		<path fill="#0E1235" d="M665.721,271.744c-0.193,8.512-1.578,21.995-4.16,40.448c-2.391,17.499-3.586,30.935-3.586,40.305
			c0,2.963,0.094,5.784,0.287,8.462c0,0.668-0.287,1.313-0.861,1.937c-0.574,0.621-1.244,0.932-2.008,0.932
			c-2.678,0-4.446-0.24-5.307-0.717c-3.635-2.104-5.451-6.074-5.451-11.905c0-1.147,0.072-2.94,0.215-5.378
			c0.144-2.438,0.215-4.231,0.215-5.379c0-1.912,0.237-4.828,0.717-8.75c0.477-3.92,0.717-6.932,0.717-9.036
			c-1.34,0.096-3.18-0.094-5.522-0.574c-2.344-0.478-4.041-0.717-5.092-0.717c-1.244,0-2.438,0.193-3.586,0.574
			c-2.295,7.555-3.635,18.696-4.016,33.42c-3.252,1.338-6.408,1.194-9.467-0.43c-2.201-1.147-3.299-3.442-3.299-6.885
			c0-0.764,0.072-1.793,0.215-3.084c0.144-1.291,0.215-2.08,0.215-2.367c0.287-5.164,1.385-15.395,3.299-30.695
			c1.625-12.813,2.389-22.997,2.295-30.551c0-1.051,0.74-1.721,2.224-2.008c1.481-0.287,2.317-0.574,2.51-0.86
			c0.574,0.67,1.959,1.244,4.16,1.721c1.815,0.383,2.916,1.244,3.299,2.582c0.764,2.392,1.147,5.07,1.147,8.033
			c0,2.104-0.312,5.428-0.932,9.968c-0.623,4.543-0.932,8.01-0.932,10.399c1.147,0.861,2.582,1.388,4.303,1.578
			c1.147,0.192,2.772,0.24,4.877,0.143c2.772-0.19,4.446-0.287,5.02-0.287c2.389-10.041,4.494-23.043,6.311-39.014
			c0.381-3.346,1.578-5.02,3.586-5.02C662.182,268.11,665.051,269.162,665.721,271.744z"/>
		<path fill="#0E1235" d="M726.536,345.038c0.574,1.531,0.86,2.869,0.86,4.016c0,1.914-0.813,3.586-2.438,5.02
			c-1.627,1.435-2.725,2.103-3.299,2.008c-4.686-0.861-7.651-4.637-8.893-11.332c-1.34-7.266-2.918-13.339-4.733-18.216
			c-3.252,0.287-6.504,0.574-9.754,0.86c-3.729,0.48-6.647,1.627-8.749,3.442c-1.054,2.965-2.438,8.225-4.16,15.778
			c-1.627,6.979-3.205,12.286-4.733,15.921c-0.767,1.721-2.391,2.198-4.877,1.434c-3.155-1.053-4.83-2.488-5.02-4.303
			c-0.287-3.635,0.764-8.51,3.156-14.63c2.869-6.979,4.446-11.952,4.733-14.917c0.094-0.861-0.526-1.815-1.864-2.869
			c-1.34-1.051-2.008-1.865-2.008-2.438c0-0.478,0.215-0.979,0.646-1.506c0.43-0.524,1.434-0.955,3.012-1.291
			c1.578-0.334,2.46-0.836,2.653-1.506c1.721-4.78,4.446-13.673,8.176-26.679c3.156-11.282,5.975-19.937,8.462-25.961
			c0.574-1.338,1.769-2.008,3.586-2.008c1.338,0,2.532,0.43,3.586,1.291c2.676,2.295,4.396,5.738,5.163,10.328
			c0.574,3.922,1.099,7.842,1.578,11.761C716.399,311.811,721.373,330.408,726.536,345.038z M705.594,317.642
			c-0.287-3.537-0.91-7.505-1.864-11.905c-0.957-3.824-1.865-7.649-2.726-11.475c-2.869,7.938-5.356,15.874-7.458,23.81
			C695.074,317.786,699.09,317.642,705.594,317.642z"/>
		<path fill="#0E1235" d="M792.371,265.002c-1.34,12.815-2.631,25.675-3.873,38.584c-1.627,15.3-2.438,28.066-2.438,38.296
			c0,3.349,0.095,6.647,0.287,9.897c0.095,1.529-0.455,2.869-1.649,4.016c-1.196,1.147-2.56,1.721-4.088,1.721
			c-2.965,0-5.45-2.008-7.458-6.024c-6.121-11.952-13.723-30.695-22.807-56.226c-0.192-0.574-0.43-0.861-0.717-0.861
			c-0.67,0-1.101,0.67-1.291,2.008c-1.627,13.675-2.438,28.066-2.438,43.173c0,7.268,0.19,14.677,0.574,22.232
			c0.094,2.772-0.718,4.684-2.438,5.737c-0.67,0.668-1.388,1.004-2.151,1.004c-0.67,0-1.531-0.287-2.582-0.86
			c-1.435-0.67-2.344-1.101-2.726-1.291c-1.243-0.383-2.008-1.531-2.295-3.442c-0.096-1.531-0.192-3.108-0.286-4.733
			c-0.287-5.356-0.431-10.948-0.431-16.782c0-10.134,0.574-22.806,1.722-38.01c1.814-23.14,2.819-35.953,3.012-38.44
			c0.094-2.102,1.864-3.155,5.307-3.155c1.625-0.191,4.017,1.004,7.172,3.585c3.06,5.834,6.835,15.301,11.331,28.4
			c4.303,12.528,8.223,22.042,11.762,28.543c1.435-12.716,3.68-31.937,6.741-57.66c0.287-1.912,1.672-2.869,4.16-2.869
			c0.86,0,1.864,0.143,3.012,0.43c1.528,0.383,2.438,0.623,2.726,0.717C791.46,263.377,792.083,264.047,792.371,265.002z"/>
		<path fill="#0E1235" d="M849.026,344.034c0.573,0.479,0.86,1.147,0.86,2.008c0,0.574-0.383,2.008-1.147,4.303
			c-0.383-0.094-0.717-0.144-1.004-0.144c-0.573,0-1.315,0.24-2.224,0.717c-0.909,0.479-1.602,0.717-2.079,0.717
			c-0.479,0-1.004-0.19-1.578-0.574c-6.407-4.016-16.352-10.04-29.834-18.072c0.287,3.539,0.524,8.606,0.717,15.204
			c0,0.767,0.095,1.914,0.287,3.442c0.19,1.529,0.287,2.629,0.287,3.299c0,2.295-1.004,3.873-3.013,4.733
			c-0.573,0.381-1.387,0.574-2.438,0.574c-1.147,0-1.864-0.336-2.151-1.004c-2.487-0.86-3.922-2.535-4.303-5.02
			c-1.147-6.885-1.721-14.964-1.721-24.24c0-3.346,0.094-8.342,0.286-14.989c0.19-6.645,0.287-11.641,0.287-14.989
			c0-10.135-0.67-18.934-2.008-26.392c-0.193-1.147,0.478-1.912,2.008-2.295c1.147-0.19,2.342-0.381,3.586-0.574
			c1.241,0.383,2.532,0.838,3.873,1.363c1.338,0.527,2.055,1.363,2.151,2.51c1.434,13.005,2.055,23.333,1.864,30.981
			c3.92-3.537,8.413-8.223,13.482-14.057c4.304-4.876,8.558-9.8,12.766-14.773c1.147-0.478,2.39-0.717,3.729-0.717
			c3.729,0,5.688,1.291,5.881,3.873c-2.678,5.93-7.938,12.958-15.777,21.085c-9.18,9.467-15.061,16.208-17.643,20.224
			c5.928,3.539,11.905,7.078,17.93,10.614C838.792,336.051,844.436,340.114,849.026,344.034z"/>
	</g>
	<g display="inline">
		<path fill="#0E1235" d="M650.298,379.575c-2.678,10.807-7.602,24.863-14.773,42.169c-8.416,20.177-13.819,34.09-16.208,41.739
			c-0.479,1.528-0.717,3.442-0.717,5.737c0.094,3.155,0.094,5.164,0,6.024c-0.287,3.346-2.057,5.021-5.307,5.021
			c-1.627,0.19-3.371-0.359-5.235-1.649c-1.865-1.291-2.75-2.654-2.653-4.088c0.287-6.981,2.055-14.964,5.307-23.954
			c2.962-7.649,5.928-15.298,8.893-22.949c-6.791-18.167-12.575-31.459-17.355-39.875c-0.287-0.478-0.43-0.955-0.43-1.435
			c0-1.051,0.596-2.03,1.793-2.94c1.194-0.908,2.367-1.363,3.514-1.363c0.19,0,2.008,0.527,5.45,1.578
			c2.389,3.635,4.877,8.319,7.459,14.056c2.198,4.877,4.35,9.754,6.454,14.63c1.912-5.737,3.824-11.425,5.738-17.068
			c2.198-6.598,4.637-12.049,7.315-16.352c0.764-1.338,2.102-2.008,4.016-2.008C646.233,376.85,648.481,377.76,650.298,379.575z"/>
		<path fill="#0E1235" d="M704.516,433.506c-5.644,12.718-13.626,20.273-23.954,22.662c-1.244,0.287-2.488,0.431-3.729,0.431
			c-5.451,0-10.951-2.963-16.495-8.893c-3.729-4.016-5.594-9.227-5.594-15.634c0-7.075,2.102-14.677,6.311-22.806
			c1.815-3.442,4.016-6.405,6.598-8.893c2.963-2.963,5.785-4.447,8.463-4.447c1.528,0,2.963,0.574,4.303,1.721
			c1.338,1.148,4.924,2.678,10.758,4.59c4.59,1.53,7.839,4.112,9.753,7.745c3.346,6.408,5.02,11.905,5.02,16.495
			C705.95,429.06,705.471,431.404,704.516,433.506z M693.041,424.613c-0.67-6.979-2.535-11.139-5.594-12.479
			c-0.479-0.19-0.91-0.287-1.291-0.287c-1.147,0-2.582,0.957-4.303,2.869c-1.914,2.201-3.396,3.492-4.446,3.873
			c-0.67,0.287-1.627,0-2.869-0.86c-1.244-0.861-2.058-1.291-2.438-1.291c-0.287,0-0.527,0.096-0.717,0.287
			c-3.348,2.869-5.02,7.315-5.02,13.339c0,4.113,0.955,7.602,2.869,10.471c2.676,3.922,4.924,5.881,6.741,5.881
			c4.207,0,8.27-2.629,12.192-7.889C691.894,433.556,693.518,428.916,693.041,424.613z"/>
		<path fill="#0E1235" d="M762.461,386.316c-0.67,6.694-2.582,15.634-5.737,26.822c-4.303,15.013-6.791,24.097-7.458,27.252
			c-2.104,9.659-6.121,18.456-12.049,26.392c-3.729,5.067-8.032,7.553-12.909,7.458c-4.303-0.096-7.508-2.822-9.61-8.176
			c-3.635-8.987-5.45-19.554-5.45-31.699c0-6.979,0.668-15.968,2.008-26.965c-0.096,0.957-0.143-2.008-0.143-8.893
			c0-5.928,2.295-8.893,6.885-8.893c0.955,0,1.983,0.265,3.083,0.789c1.098,0.527,2.174,1.076,3.228,1.649
			c0.094,4.877-0.049,12.048-0.43,21.515c-0.48,10.137-0.717,17.452-0.717,21.945c0,4.783,0.144,9.133,0.43,13.053
			c0.19,2.008,1.051,5.833,2.582,11.475c4.016-4.494,7.171-10.471,9.466-17.929c0.764-2.486,2.295-9.274,4.59-20.368
			c1.815-8.414,3.873-15.011,6.168-19.794c0.668-1.338,1.241-3.873,1.722-7.602c0.477-3.729,1.051-6.311,1.721-7.745
			c1.051-2.295,2.869-3.443,5.45-3.443C758.636,383.161,761.027,384.214,762.461,386.316z"/>
		<path fill="#0E1235" d="M784.262,467.356c0.19,1.338,0,2.653-0.573,3.944c-0.574,1.291-1.269,1.959-2.08,2.008
			c-0.813,0.047-1.411,0.262-1.793,0.646c-0.383,0.381-0.766,0.524-1.147,0.43c-5.069-1.914-7.938-4.399-8.605-7.458
			c-0.287-1.34,0.621-2.701,2.725-4.088c2.103-1.385,3.586-2.031,4.447-1.937c1.528,0.193,3.034,0.861,4.518,2.008
			C783.234,464.058,784.07,465.539,784.262,467.356z M798.175,379.862c-0.573,6.694-3.012,18.743-7.314,36.146
			c-3.729,15.11-5.451,27.492-5.164,37.149c0,0.86-0.502,1.649-1.506,2.366c-1.004,0.717-1.937,0.982-2.797,0.789
			c-4.877-0.955-7.459-3.346-7.745-7.171c-0.097-2.008-0.144-4.017-0.144-6.024c0-8.987,1.435-19.984,4.303-32.99
			c4.397-19.22,6.788-30.121,7.172-32.703c0.19-1.147,0.907-1.958,2.151-2.438c1.241-0.478,2.438-0.524,3.586-0.144
			c1.625,0.479,3.249,0.957,4.877,1.434C797.409,377.042,798.27,378.237,798.175,379.862z"/>
	</g>
	<g display="inline">
		<g>
			<path fill="#0E1235" d="M558.78,319.324c-40.145-18.309-75.903-44.902-104.956-78.111c-4.245-4.853-11.294,2.244-7.071,7.071
				c29.543,33.769,66.156,61.056,106.98,79.675C559.546,330.61,564.634,321.994,558.78,319.324L558.78,319.324z"/>
		</g>
	</g>
	<g display="inline">
		<g>
			<path fill="#0E1235" d="M436,232c6.435,0,6.445-10,0-10C429.565,222,429.555,232,436,232L436,232z"/>
		</g>
	</g>
	<g display="inline">
		<g>
			<path fill="#0E1235" d="M827.162,461.807c27.742,30.62,64.273,52.615,104.29,62.881c6.237,1.6,8.898-8.042,2.658-9.643
				c-38.463-9.867-73.22-30.886-99.878-60.309C829.903,449.957,822.848,457.046,827.162,461.807L827.162,461.807z"/>
		</g>
	</g>
	<g display="inline">
		<g>
			<path fill="#0E1235" d="M958,527c6.435,0,6.445-10,0-10C951.565,517,951.555,527,958,527L958,527z"/>
		</g>
	</g>
	<g display="inline">
		<g>
			<path fill="#0E1235" d="M870.349,311.993c26.089-14.042,51.611-29.097,76.521-45.138c5.393-3.473,0.385-12.133-5.047-8.635
				c-24.91,16.041-50.432,31.095-76.521,45.138C859.633,306.409,864.677,315.046,870.349,311.993L870.349,311.993z"/>
		</g>
	</g>
	<g display="inline">
		<g>
			<path fill="#0E1235" d="M964,252c6.435,0,6.445-10,0-10C957.565,242,957.555,252,964,252L964,252z"/>
		</g>
	</g>
	<g display="inline">
		<g>
			<path fill="#0E1235" d="M562.223,430.138c-7.304,3.396-14.608,6.792-21.912,10.189c-5.83,2.711-0.757,11.334,5.047,8.635
				c7.304-3.396,14.608-6.792,21.912-10.189C573.101,436.062,568.028,427.44,562.223,430.138L562.223,430.138z"/>
		</g>
	</g>
	<g display="inline">
		<g>
			<path fill="#0E1235" d="M521,460c6.435,0,6.445-10,0-10C514.565,450,514.555,460,521,460L521,460z"/>
		</g>
	</g>
	<g display="inline">
		<g>
			<path fill="#0E1235" d="M793,667c6.435,0,6.445-10,0-10C786.565,657,786.555,667,793,667L793,667z"/>
		</g>
	</g>
	<g display="inline">
		<g>
			<path fill="#0E1235" d="M783,688c6.435,0,6.445-10,0-10C776.565,678,776.555,688,783,688L783,688z"/>
		</g>
	</g>
	<g display="inline">
		<g>
			<path fill="#0E1235" d="M806,686c6.435,0,6.445-10,0-10C799.565,676,799.555,686,806,686L806,686z"/>
		</g>
	</g>
	<g display="inline">
		<g>
			<path fill="#0E1235" d="M506,557c6.435,0,6.445-10,0-10C499.565,547,499.555,557,506,557L506,557z"/>
		</g>
	</g>
	<g display="inline">
		<g>
			<path fill="#0E1235" d="M644.605,505.482c28.207-7.413,57.293-9.921,86.36-7.569c6.415,0.519,6.381-9.484,0-10
				c-29.902-2.42-60.006,0.301-89.018,7.926C635.728,497.473,638.365,507.122,644.605,505.482L644.605,505.482z"/>
		</g>
	</g>
	<g display="inline">
		<g>
			<path fill="#0E1235" d="M693.988,515.902c16.306-1.848,32.676-1.97,49.008-0.368c6.4,0.628,6.357-9.376,0-10
				c-16.332-1.603-32.702-1.48-49.008,0.368C687.667,506.618,687.594,516.626,693.988,515.902L693.988,515.902z"/>
		</g>
	</g>
</g>
<g id="Layer_3" display="none">
	<polygon display="inline" fill="#EF4D4E" points="480.511,474.692 480.511,395.313 428.575,448.693 	"/>
	<path display="inline" fill="#F09B36" d="M415.132,462.282c-0.073,0.05-0.148,0.094-0.223,0.142
		c-0.145,0.105-0.264,0.21-0.333,0.306v86.272c0.001,0.04-0.001,0.079,0,0.119v208.84l236.057-180.215L419.694,462.141
		C417.936,461.259,416.076,461.722,415.132,462.282z M506,547c6.445,0,6.435,10,0,10C499.555,557,499.565,547,506,547z M431.333,519
		c0-2.762,2.239-5,5-5s5,2.238,5,5v131.333c0,2.762-2.239,5-5,5s-5-2.238-5-5V519z M431.333,673c0-2.762,2.239-5,5-5s5,2.238,5,5
		v16.667c0,2.762-2.239,5-5,5s-5-2.238-5-5V673z"/>
	<polygon display="inline" fill="#EFAF3F" points="437.896,416.169 384.278,323.787 377.455,350.416 423.944,430.509 	"/>
	<path display="inline" fill="#F9E3B2" d="M340.438,341.27c0.282-1.405,1.153-2.622,2.393-3.341s2.728-0.872,4.087-0.42
		l21.675,7.208l8.369-32.665l-55.639-31.146c-0.424,3.796-2.566,7.351-6.123,9.415c-3.556,2.064-7.702,2.161-11.208,0.648
		l-0.555,63.761l32.509,8.935L340.438,341.27z"/>
	<polygon display="inline" fill="#EF4D4E" points="919.489,395.312 919.489,474.692 971.425,448.693 	"/>
	<polygon display="inline" fill="#EFAF3F" points="1022.545,350.416 1015.722,323.786 962.104,416.168 976.056,430.509 	"/>
	<g display="inline">
		<path fill="#F9E3B2" d="M695.146,543.764c2.867-2.19,6.843-2.188,9.709,0l30.358,23.177l136.115-68.139
			c-16.284-10.232-31.187-22.669-44.166-36.994c-4.314-4.762,2.741-11.851,7.071-7.071c13.897,15.339,29.999,28.387,47.675,38.769
			l21.581-10.803V293.418c-10.943,6.371-21.986,12.571-33.14,18.575c-5.672,3.053-10.716-5.583-5.047-8.635
			c12.869-6.927,25.599-14.102,38.187-21.519v-80.95H496.511v80.658c19.151,14.941,40.033,27.635,62.27,37.776
			c5.854,2.67,0.765,11.286-5.047,8.635c-20.225-9.224-39.412-20.582-57.222-33.795v188.538l168.277,84.239L695.146,543.764z
			 M742.997,515.534c-16.332-1.603-32.702-1.48-49.008,0.368c-6.395,0.725-6.322-9.284,0-10c16.306-1.848,32.676-1.971,49.008-0.368
			C749.353,506.158,749.397,516.162,742.997,515.534z M756.724,413.139c-4.303,15.013-6.791,24.097-7.458,27.252
			c-2.104,9.659-6.121,18.456-12.049,26.392c-3.729,5.067-8.032,7.553-12.909,7.458c-4.303-0.096-7.508-2.822-9.61-8.176
			c-3.635-8.987-5.45-19.554-5.45-31.699c0-6.979,0.668-15.968,2.008-26.965c-0.096,0.957-0.143-2.008-0.143-8.893
			c0-5.928,2.295-8.893,6.885-8.893c0.955,0,1.983,0.265,3.083,0.789c1.098,0.527,2.174,1.076,3.228,1.649
			c0.094,4.877-0.049,12.048-0.43,21.515c-0.48,10.137-0.717,17.452-0.717,21.945c0,4.783,0.144,9.133,0.43,13.053
			c0.19,2.008,1.051,5.833,2.582,11.475c4.016-4.494,7.171-10.471,9.466-17.929c0.764-2.486,2.295-9.274,4.59-20.368
			c1.815-8.414,3.873-15.011,6.168-19.794c0.668-1.338,1.241-3.873,1.722-7.602c0.477-3.729,1.051-6.311,1.721-7.745
			c1.051-2.295,2.869-3.443,5.45-3.443c3.347,0,5.737,1.054,7.172,3.156C761.791,393.011,759.879,401.951,756.724,413.139z
			 M783.689,471.301c-0.574,1.291-1.269,1.959-2.08,2.008c-0.813,0.047-1.411,0.262-1.793,0.646
			c-0.383,0.381-0.766,0.524-1.147,0.43c-5.069-1.914-7.938-4.399-8.605-7.458c-0.287-1.34,0.621-2.701,2.725-4.088
			c2.103-1.385,3.586-2.031,4.447-1.937c1.528,0.193,3.034,0.861,4.518,2.008c1.481,1.147,2.317,2.629,2.51,4.446
			C784.453,468.694,784.262,470.01,783.689,471.301z M800.258,271.313c1.147-0.19,2.342-0.381,3.586-0.574
			c1.241,0.383,2.532,0.838,3.873,1.363c1.338,0.527,2.055,1.363,2.151,2.51c1.434,13.005,2.055,23.333,1.864,30.981
			c3.92-3.537,8.413-8.223,13.482-14.057c4.304-4.876,8.558-9.8,12.766-14.773c1.147-0.478,2.39-0.717,3.729-0.717
			c3.729,0,5.688,1.291,5.881,3.873c-2.678,5.93-7.938,12.958-15.777,21.085c-9.18,9.467-15.061,16.208-17.643,20.224
			c5.928,3.539,11.905,7.078,17.93,10.614c6.691,4.208,12.335,8.272,16.925,12.192c0.573,0.479,0.86,1.147,0.86,2.008
			c0,0.574-0.383,2.008-1.147,4.303c-0.383-0.094-0.717-0.144-1.004-0.144c-0.573,0-1.315,0.24-2.224,0.717
			c-0.909,0.479-1.602,0.717-2.079,0.717c-0.479,0-1.004-0.19-1.578-0.574c-6.407-4.016-16.352-10.04-29.834-18.072
			c0.287,3.539,0.524,8.606,0.717,15.204c0,0.767,0.095,1.914,0.287,3.442c0.19,1.529,0.287,2.629,0.287,3.299
			c0,2.295-1.004,3.873-3.013,4.733c-0.573,0.381-1.387,0.574-2.438,0.574c-1.147,0-1.864-0.336-2.151-1.004
			c-2.487-0.86-3.922-2.535-4.303-5.02c-1.147-6.885-1.721-14.964-1.721-24.24c0-3.346,0.094-8.342,0.286-14.989
			c0.19-6.645,0.287-11.641,0.287-14.989c0-10.135-0.67-18.934-2.008-26.392C798.057,272.46,798.728,271.696,800.258,271.313z
			 M798.175,379.862c-0.573,6.694-3.012,18.743-7.314,36.146c-3.729,15.11-5.451,27.492-5.164,37.149
			c0,0.86-0.502,1.649-1.506,2.366c-1.004,0.717-1.937,0.982-2.797,0.789c-4.877-0.955-7.459-3.346-7.745-7.171
			c-0.097-2.008-0.144-4.017-0.144-6.024c0-8.987,1.435-19.984,4.303-32.99c4.397-19.22,6.788-30.121,7.172-32.703
			c0.19-1.147,0.907-1.958,2.151-2.438c1.241-0.478,2.438-0.524,3.586-0.144c1.625,0.479,3.249,0.957,4.877,1.434
			C797.409,377.042,798.27,378.237,798.175,379.862z M735.285,303.442c1.814-23.14,2.819-35.953,3.012-38.44
			c0.094-2.102,1.864-3.155,5.307-3.155c1.625-0.191,4.017,1.004,7.172,3.585c3.06,5.834,6.835,15.301,11.331,28.4
			c4.303,12.528,8.223,22.042,11.762,28.543c1.435-12.716,3.68-31.937,6.741-57.66c0.287-1.912,1.672-2.869,4.16-2.869
			c0.86,0,1.864,0.143,3.012,0.43c1.528,0.383,2.438,0.623,2.726,0.717c0.954,0.383,1.577,1.053,1.864,2.008
			c-1.34,12.815-2.631,25.675-3.873,38.584c-1.627,15.3-2.438,28.066-2.438,38.296c0,3.349,0.095,6.647,0.287,9.897
			c0.095,1.529-0.455,2.869-1.649,4.016c-1.196,1.147-2.56,1.721-4.088,1.721c-2.965,0-5.45-2.008-7.458-6.024
			c-6.121-11.952-13.723-30.695-22.807-56.226c-0.192-0.574-0.43-0.861-0.717-0.861c-0.67,0-1.101,0.67-1.291,2.008
			c-1.627,13.675-2.438,28.066-2.438,43.173c0,7.268,0.19,14.677,0.574,22.232c0.094,2.772-0.718,4.684-2.438,5.737
			c-0.67,0.668-1.388,1.004-2.151,1.004c-0.67,0-1.531-0.287-2.582-0.86c-1.435-0.67-2.344-1.101-2.726-1.291
			c-1.243-0.383-2.008-1.531-2.295-3.442c-0.096-1.531-0.192-3.108-0.286-4.733c-0.287-5.356-0.431-10.948-0.431-16.782
			C733.563,331.318,734.137,318.646,735.285,303.442z M673.896,345.038c2.869-6.979,4.446-11.952,4.733-14.917
			c0.094-0.861-0.526-1.815-1.864-2.869c-1.34-1.051-2.008-1.865-2.008-2.438c0-0.478,0.215-0.979,0.646-1.506
			c0.43-0.524,1.434-0.955,3.012-1.291c1.578-0.334,2.46-0.836,2.653-1.506c1.721-4.78,4.446-13.673,8.176-26.679
			c3.156-11.282,5.975-19.937,8.462-25.961c0.574-1.338,1.769-2.008,3.586-2.008c1.338,0,2.532,0.43,3.586,1.291
			c2.676,2.295,4.396,5.738,5.163,10.328c0.574,3.922,1.099,7.842,1.578,11.761c4.78,22.568,9.754,41.166,14.917,55.796
			c0.574,1.531,0.86,2.869,0.86,4.016c0,1.914-0.813,3.586-2.438,5.02c-1.627,1.435-2.725,2.103-3.299,2.008
			c-4.686-0.861-7.651-4.637-8.893-11.332c-1.34-7.266-2.918-13.339-4.733-18.216c-3.252,0.287-6.504,0.574-9.754,0.86
			c-3.729,0.48-6.647,1.627-8.749,3.442c-1.054,2.965-2.438,8.225-4.16,15.778c-1.627,6.979-3.205,12.286-4.733,15.921
			c-0.767,1.721-2.391,2.198-4.877,1.434c-3.155-1.053-4.83-2.488-5.02-4.303C670.453,356.033,671.504,351.159,673.896,345.038z
			 M676.116,395.926c1.528,0,2.963,0.574,4.303,1.721c1.338,1.148,4.924,2.678,10.758,4.59c4.59,1.53,7.839,4.112,9.753,7.745
			c3.346,6.408,5.02,11.905,5.02,16.495c0,2.582-0.479,4.926-1.434,7.028c-5.644,12.718-13.626,20.273-23.954,22.662
			c-1.244,0.287-2.488,0.431-3.729,0.431c-5.451,0-10.951-2.963-16.495-8.893c-3.729-4.016-5.594-9.227-5.594-15.634
			c0-7.075,2.102-14.677,6.311-22.806c1.815-3.442,4.016-6.405,6.598-8.893C670.616,397.41,673.438,395.926,676.116,395.926z
			 M642.198,312.909c2.772-0.19,4.446-0.287,5.02-0.287c2.389-10.041,4.494-23.043,6.311-39.014c0.381-3.346,1.578-5.02,3.586-5.02
			c5.067-0.478,7.936,0.574,8.606,3.156c-0.193,8.512-1.578,21.995-4.16,40.448c-2.391,17.499-3.586,30.935-3.586,40.305
			c0,2.963,0.094,5.784,0.287,8.462c0,0.668-0.287,1.313-0.861,1.937c-0.574,0.621-1.244,0.932-2.008,0.932
			c-2.678,0-4.446-0.24-5.307-0.717c-3.635-2.104-5.451-6.074-5.451-11.905c0-1.147,0.072-2.94,0.215-5.378
			c0.144-2.438,0.215-4.231,0.215-5.379c0-1.912,0.237-4.828,0.717-8.75c0.477-3.92,0.717-6.932,0.717-9.036
			c-1.34,0.096-3.18-0.094-5.522-0.574c-2.344-0.478-4.041-0.717-5.092-0.717c-1.244,0-2.438,0.193-3.586,0.574
			c-2.295,7.555-3.635,18.696-4.016,33.42c-3.252,1.338-6.408,1.194-9.467-0.43c-2.201-1.147-3.299-3.442-3.299-6.885
			c0-0.764,0.072-1.793,0.215-3.084c0.144-1.291,0.215-2.08,0.215-2.367c0.287-5.164,1.385-15.395,3.299-30.695
			c1.625-12.813,2.389-22.997,2.295-30.551c0-1.051,0.74-1.721,2.224-2.008c1.481-0.287,2.317-0.574,2.51-0.86
			c0.574,0.67,1.959,1.244,4.16,1.721c1.815,0.383,2.916,1.244,3.299,2.582c0.764,2.392,1.147,5.07,1.147,8.033
			c0,2.104-0.312,5.428-0.932,9.968c-0.623,4.543-0.932,8.01-0.932,10.399c1.147,0.861,2.582,1.388,4.303,1.578
			C638.468,312.958,640.093,313.005,642.198,312.909z M521,460c-6.445,0-6.435-10,0-10C527.445,450,527.435,460,521,460z
			 M567.271,438.773c-7.304,3.396-14.608,6.792-21.912,10.189c-5.805,2.699-10.877-5.924-5.047-8.635
			c7.304-3.396,14.608-6.792,21.912-10.189C568.028,427.44,573.101,436.062,567.271,438.773z M595.869,351.923
			c0.094,1.815,0,3.203-0.287,4.16c-0.48,1.528-1.435,2.246-2.869,2.151c-2.775-0.096-5.07-1.269-6.885-3.514
			c-1.817-2.248-2.821-4.756-3.012-7.53c-0.193-3.537-0.287-7.266-0.287-11.188c0-6.312,0.43-16.302,1.291-29.978
			c0.86-13.1,1.242-23.093,1.147-29.978c-2.582-0.19-6.167,0.049-10.758,0.717c-5.26,0.767-8.893,1.147-10.901,1.147
			c-4.684,0-8.509-1.253-11.475-3.761c-1.147-2.505-1.721-3.808-1.721-3.904c0-0.674,0.336-1.398,1.004-2.169
			c3.062-1.06,9.323-2.023,18.79-2.893c8.319-0.867,14.534-2.409,18.646-4.628c3.346,1.147,7.171,1.721,11.475,1.721
			c4.303,0,8.413-0.524,12.335-1.578c1.147-0.094,4.063-0.765,8.749-2.008c3.443-0.86,6.312-1.147,8.606-0.86
			c1.721,0,2.438,0.717,2.151,2.151c2.582,0,3.873,0.86,3.873,2.582c-0.86,3.442-2.488,5.451-4.876,6.024
			c-6.217,1.531-17.022,3.539-32.416,6.024c-1.914,23.81-2.869,43.653-2.869,59.525
			C595.583,340.161,595.676,346.091,595.869,351.923z M619.317,463.484c-0.479,1.528-0.717,3.442-0.717,5.737
			c0.094,3.155,0.094,5.164,0,6.024c-0.287,3.346-2.057,5.021-5.307,5.021c-1.627,0.19-3.371-0.359-5.235-1.649
			c-1.865-1.291-2.75-2.654-2.653-4.088c0.287-6.981,2.055-14.964,5.307-23.954c2.962-7.649,5.928-15.298,8.893-22.949
			c-6.791-18.167-12.575-31.459-17.355-39.875c-0.287-0.478-0.43-0.955-0.43-1.435c0-1.051,0.596-2.03,1.793-2.94
			c1.194-0.908,2.367-1.363,3.514-1.363c0.19,0,2.008,0.527,5.45,1.578c2.389,3.635,4.877,8.319,7.459,14.056
			c2.198,4.877,4.35,9.754,6.454,14.63c1.912-5.737,3.824-11.425,5.738-17.068c2.198-6.598,4.637-12.049,7.315-16.352
			c0.764-1.338,2.102-2.008,4.016-2.008c2.676,0,4.924,0.91,6.741,2.726c-2.678,10.807-7.602,24.863-14.773,42.169
			C627.109,441.922,621.706,455.834,619.317,463.484z M641.947,495.839c29.012-7.625,59.116-10.346,89.018-7.926
			c6.381,0.516,6.415,10.519,0,10c-29.067-2.353-58.153,0.155-86.36,7.569C638.365,507.122,635.728,497.473,641.947,495.839z"/>
		<path fill="#F9E3B2" d="M675.973,446.415c4.207,0,8.27-2.629,12.192-7.889c3.729-4.971,5.354-9.61,4.877-13.913
			c-0.67-6.979-2.535-11.139-5.594-12.479c-0.479-0.19-0.91-0.287-1.291-0.287c-1.147,0-2.582,0.957-4.303,2.869
			c-1.914,2.201-3.396,3.492-4.446,3.873c-0.67,0.287-1.627,0-2.869-0.86c-1.244-0.861-2.058-1.291-2.438-1.291
			c-0.287,0-0.527,0.096-0.717,0.287c-3.348,2.869-5.02,7.315-5.02,13.339c0,4.113,0.955,7.602,2.869,10.471
			C671.907,444.456,674.155,446.415,675.973,446.415z"/>
		<path fill="#F9E3B2" d="M703.73,305.737c-0.957-3.824-1.865-7.649-2.726-11.475c-2.869,7.938-5.356,15.874-7.458,23.81
			c1.528-0.287,5.544-0.43,12.048-0.43C705.307,314.105,704.684,310.137,703.73,305.737z"/>
	</g>
	<path display="inline" fill="#F09B36" d="M934.111,515.045c6.239,1.601,3.579,11.243-2.658,9.643
		c-15.042-3.859-29.591-9.375-43.365-16.384l-138.719,69.442l236.056,180.215v-208.84c0.001-0.04-0.001-0.079,0-0.119V462.73
		c-0.069-0.098-0.192-0.204-0.34-0.311c-0.07-0.045-0.142-0.087-0.211-0.134c-0.943-0.561-2.807-1.026-4.567-0.145l-80.936,40.516
		C910.502,507.813,922.126,511.971,934.111,515.045z M958,517c6.445,0,6.435,10,0,10C951.555,527,951.565,517,958,517z"/>
	<polygon display="inline" fill="#EFAF3F" points="309.996,366.904 398.576,519.531 398.576,481.15 336.491,374.186 	"/>
	<path display="inline" fill="#FDF14D" d="M368.728,355.3l-19.599-6.518l-4.064,20.257l53.571,92.295
		c0.386-4.591,2.822-8.826,6.738-11.74l11.327-11.642L368.728,355.3z"/>
	<path display="inline" fill="#F9E3B2" d="M1084.801,290.321c-3.557-2.065-5.699-5.619-6.123-9.415l-55.639,31.145l8.369,32.666
		l21.674-7.208c1.36-0.451,2.848-0.3,4.088,0.42c1.239,0.719,2.11,1.936,2.393,3.341l4.493,22.395l32.508-8.935l-0.555-63.761
		C1092.504,292.482,1088.357,292.385,1084.801,290.321z"/>
	<polygon display="inline" fill="#EFAF3F" points="1001.424,481.15 1001.424,519.531 1090.004,366.904 1063.509,374.186 	"/>
	<path display="inline" fill="#F4BB3A" d="M700,560.187l-285.707,218.12c-0.024,0.02-0.048,0.037-0.069,0.055
		c0.36,0.316,1.146,0.749,2.542,0.749h566.468c1.396,0,2.182-0.433,2.542-0.749c-0.021-0.018-0.045-0.035-0.069-0.055L700,560.187z
		 M806,676c6.445,0,6.435,10,0,10C799.555,686,799.565,676,806,676z M793,657c6.445,0,6.435,10,0,10
		C786.555,667,786.565,657,793,657z M783,678c6.445,0,6.435,10,0,10C776.555,688,776.565,678,783,678z M700,596.029
		c16.749,0,30.375,13.626,30.375,30.375S716.749,656.779,700,656.779s-30.375-13.626-30.375-30.375S683.251,596.029,700,596.029z
		 M863.876,767.333H536.125c-2.761,0-5-2.238-5-5s2.239-5,5-5h327.751c2.762,0,5,2.238,5,5S866.638,767.333,863.876,767.333z"/>
	<path display="inline" fill="#FDF14D" d="M1050.87,348.783l-19.597,6.517l-47.975,82.652l11.327,11.642
		c3.917,2.914,6.352,7.15,6.738,11.74l53.571-92.295L1050.87,348.783z"/>
	<path display="inline" fill="#EF4D4E" d="M700,643.779c9.581,0,17.375-7.794,17.375-17.375s-7.794-17.375-17.375-17.375
		c-9.581,0-17.375,7.794-17.375,17.375S690.419,643.779,700,643.779z"/>
</g>
<g id="Layer_4" display="none">
	<path display="inline" fill="#C9BB9D" d="M700,460c-139.546,0-211-48.152-211-48.152l3.5,72.652l168,88c0,0,12.5,0.5,14.5,0
		s25-20.5,25-20.5s23,20,25,20.5s14.5,0,14.5,0l168-88l3.5-72.652C911,411.848,839.547,460,700,460z"/>
	<path display="inline" fill="#B33A3B" d="M441.333,429.622c0,0,32.688,6.65,39.177,50.681L489,483v-95.333l-42,24.181"/>
	<polyline display="inline" fill="#FFFFFF" points="345.066,358.242 404.667,456.667 398.576,468.333 340.199,366.904 	"/>
	<polygon display="inline" fill="#FFFFFF" points="328.667,368.667 402.759,492.285 404.667,476.272 344.134,368.667 	"/>
	<polyline display="inline" fill="#FDF14D" points="372.433,348.783 424.25,433 428.575,429.622 375.5,341.5 	"/>
	<g display="inline">
		<g>
			<path fill="#EFAF3F" d="M374.333,385.167c1.93,0,1.934-3,0-3C372.403,382.167,372.4,385.167,374.333,385.167L374.333,385.167z"/>
		</g>
	</g>
	<g display="inline">
		<g>
			<path fill="#EFAF3F" d="M380.036,396.982c2.258,2.832,3.974,6.005,5.144,9.43c0.621,1.817,3.52,1.036,2.893-0.798
				c-1.347-3.942-3.32-7.499-5.916-10.754C380.954,393.352,378.843,395.487,380.036,396.982L380.036,396.982z"/>
		</g>
	</g>
	<g display="inline">
		<g>
			<path fill="#EFAF3F" d="M397.667,431.167c1.93,0,1.934-3,0-3C395.736,428.167,395.733,431.167,397.667,431.167L397.667,431.167z"
				/>
		</g>
	</g>
	<path display="inline" fill="#BBAA85" d="M323.333,280.906c0,0,21.798,26.761,21.732,60.594l21.601,7.283
		c0,0,5.717-0.317,5.766-9.783c0.05-9.466,8.451-32.667,8.451-32.667L328.667,271"/>
	<g display="inline">
		<g>
			<path fill="#FFFFFF" d="M308.053,315.748c0.146,4.501,0.291,9.001,0.437,13.502c0.125,3.851,6.125,3.868,6,0
				c-0.146-4.501-0.291-9.001-0.437-13.502C313.928,311.897,307.928,311.88,308.053,315.748L308.053,315.748z"/>
		</g>
	</g>
	<g display="inline">
		<g>
			<path fill="#FFFFFF" d="M311.75,338.25c1.93,0,1.934-3,0-3C309.82,335.25,309.816,338.25,311.75,338.25L311.75,338.25z"/>
		</g>
	</g>
	<path display="inline" fill="#FFFFFF" d="M424.333,460.893v301.44l-19.667,10V460.893
		C404.667,460.893,415.853,453.078,424.333,460.893z"/>
	<polygon display="inline" fill="#B25D25" points="480.511,492.285 642.333,591 661.667,572.722 	"/>
	<path display="inline" fill="#F09B36" d="M644.935,602.225L428.575,788l-21.908-2.333v-11
		C406.667,774.667,633.537,602.117,644.935,602.225z"/>
	<path display="inline" fill="#B33A3B" d="M958.667,429.622c0,0-32.688,6.65-39.177,50.681L911,483v-95.333l42,24.181"/>
	<polyline display="inline" fill="#FFFFFF" points="1054.934,358.242 995.333,456.667 1001.424,468.333 1059.801,366.904 	"/>
	<polygon display="inline" fill="#FFFFFF" points="1071.333,368.667 997.241,492.285 995.333,476.272 1055.866,368.667 	"/>
	<polyline display="inline" fill="#FDF14D" points="1027.567,348.783 975.75,433 971.425,429.622 1024.5,341.5 	"/>
	<g display="inline">
		<g>
			<path fill="#EFAF3F" d="M1025.667,385.167c1.93,0,1.934-3,0-3C1023.736,382.167,1023.733,385.167,1025.667,385.167
				L1025.667,385.167z"/>
		</g>
	</g>
	<g display="inline">
		<g>
			<path fill="#EFAF3F" d="M1017.843,394.861c-2.596,3.255-4.569,6.813-5.916,10.754c-0.626,1.831,2.271,2.617,2.893,0.798
				c1.17-3.425,2.886-6.598,5.144-9.43C1021.156,395.487,1019.047,393.351,1017.843,394.861L1017.843,394.861z"/>
		</g>
	</g>
	<g display="inline">
		<g>
			<path fill="#EFAF3F" d="M1002.333,431.167c1.93,0,1.934-3,0-3C1000.403,428.167,1000.4,431.167,1002.333,431.167
				L1002.333,431.167z"/>
		</g>
	</g>
	<path display="inline" fill="#BBAA85" d="M1076.667,280.906c0,0-21.798,26.761-21.732,60.594l-21.601,7.283
		c0,0-5.717-0.317-5.766-9.783s-8.451-32.667-8.451-32.667L1071.333,271"/>
	<g display="inline">
		<g>
			<path fill="#FFFFFF" d="M1085.947,315.748c-0.146,4.501-0.292,9.001-0.437,13.502c-0.125,3.862,5.875,3.858,6,0
				c0.146-4.501,0.292-9.001,0.437-13.502C1092.072,311.886,1086.072,311.891,1085.947,315.748L1085.947,315.748z"/>
		</g>
	</g>
	<g display="inline">
		<g>
			<path fill="#FFFFFF" d="M1088.25,338.25c1.93,0,1.934-3,0-3C1086.32,335.25,1086.316,338.25,1088.25,338.25L1088.25,338.25z"/>
		</g>
	</g>
	<path display="inline" fill="#FFFFFF" d="M975.667,460.893v301.44l19.667,10V460.893
		C995.333,460.893,984.147,453.078,975.667,460.893z"/>
	<polygon display="inline" fill="#B25D25" points="919.489,492.285 757.667,591 738.333,572.722 	"/>
	<path display="inline" fill="#F09B36" d="M755.065,602.225L971.425,788l21.908-2.333v-11
		C993.333,774.667,766.463,602.117,755.065,602.225z"/>
	<g display="inline">
		<g>
			<path fill="#FFFFFF" d="M693.667,628.667c3.861,0,3.867-6,0-6C689.806,622.667,689.8,628.667,693.667,628.667L693.667,628.667z"
				/>
		</g>
	</g>
	<g display="inline">
		<g>
			<path fill="#C9BB9D" d="M831,246.5c5.791,0,5.801-9,0-9C825.209,237.5,825.199,246.5,831,246.5L831,246.5z"/>
		</g>
	</g>
	<g display="inline">
		<g>
			<path fill="#C9BB9D" d="M832,269.5c5.791,0,5.801-9,0-9C826.209,260.5,826.199,269.5,832,269.5L832,269.5z"/>
		</g>
	</g>
	<g display="inline">
		<g>
			<path fill="#C9BB9D" d="M857,259.5c5.791,0,5.801-9,0-9C851.209,250.5,851.199,259.5,857,259.5L857,259.5z"/>
		</g>
	</g>
	<g display="inline">
		<g>
			<path fill="#C9BB9D" d="M527,237.5c39.333,0,78.667,0,118,0c5.791,0,5.801-9,0-9c-39.333,0-78.667,0-118,0
				C521.209,228.5,521.199,237.5,527,237.5L527,237.5z"/>
		</g>
	</g>
	<g display="inline">
		<g>
			<path fill="#C9BB9D" d="M674,238.5c5.791,0,5.801-9,0-9C668.209,229.5,668.199,238.5,674,238.5L674,238.5z"/>
		</g>
	</g>
	<g display="inline">
		<g>
			<path fill="#C9BB9D" d="M879,370.5c9,0,18,0,27,0c5.791,0,5.801-9,0-9c-9,0-18,0-27,0C873.209,361.5,873.199,370.5,879,370.5
				L879,370.5z"/>
		</g>
	</g>
	<g display="inline">
		<g>
			<path fill="#C9BB9D" d="M495,377.5c37.333,0,74.667,0,112,0c5.791,0,5.801-9,0-9c-37.333,0-74.667,0-112,0
				C489.209,368.5,489.199,377.5,495,377.5L495,377.5z"/>
		</g>
	</g>
</g>
<g id="Layer_1_copy" display="none">
	<g display="inline">
		<path fill="#0E1235" d="M700,656.779c16.749,0,30.375-13.626,30.375-30.375S716.749,596.029,700,596.029
			s-30.375,13.626-30.375,30.375S683.251,656.779,700,656.779z M700,609.029c9.581,0,17.375,7.794,17.375,17.375
			s-7.794,17.375-17.375,17.375c-9.581,0-17.375-7.794-17.375-17.375S690.419,609.029,700,609.029z"/>
		<path fill="#0E1235" d="M1107.735,250.801c-2.446-1.419-5.458-1.442-7.923-0.062l-87.25,48.84
			c-1.252,0.701-2.292,1.725-3.012,2.965l-59.034,101.715l-31.028-31.891v-88.432c9.206-5.564,18.335-11.255,27.381-17.081
			c5.393-3.473,0.385-12.133-5.047-8.635c-7.389,4.758-14.839,9.419-22.334,14.003V192.89c0-4.418-3.582-8-8-8H488.511
			c-4.418,0-8,3.582-8,8v75.269c-9.407-8.415-18.333-17.397-26.686-26.946c-4.245-4.853-11.294,2.244-7.071,7.071
			c10.411,11.9,21.716,22.975,33.757,33.17v90.915l-31.028,31.891l-59.034-101.715c-0.72-1.241-1.76-2.265-3.011-2.965l-87.25-48.84
			c-2.467-1.38-5.479-1.357-7.924,0.062c-2.444,1.419-3.959,4.023-3.983,6.849l-0.87,99.99c-0.013,1.434,0.36,2.845,1.081,4.085
			l110.085,189.68v222.759c0,4.946,0.256,9.046,0.256,9.046c2.406,7.117,9.613,11.899,17.934,11.899h566.468
			c8.32,0,15.527-4.781,17.934-11.898c0,0,0.256-6.212,0.256-9.047V551.406l110.085-189.68c0.72-1.24,1.093-2.651,1.081-4.085
			l-0.87-99.99C1111.695,254.824,1110.181,252.22,1107.735,250.801z M1015.722,323.786l6.823,26.631l-46.489,80.093l-13.952-14.34
			L1015.722,323.786z M919.489,395.312l51.936,53.381l-51.936,25.999V395.312z M980.306,462.141c1.76-0.881,3.624-0.416,4.567,0.145
			c0.069,0.047,0.141,0.089,0.211,0.134c0.148,0.107,0.271,0.213,0.34,0.311v86.272c-0.001,0.04,0.001,0.079,0,0.119v208.84
			L749.367,577.747l138.719-69.442c13.775,7.008,28.324,12.525,43.365,16.384c6.237,1.6,8.898-8.042,2.658-9.643
			c-11.985-3.074-23.609-7.232-34.741-12.389L980.306,462.141z M496.511,294.163c17.81,13.214,36.998,24.571,57.222,33.795
			c5.812,2.651,10.901-5.965,5.047-8.635c-22.236-10.141-43.119-22.835-62.27-37.776V200.89h406.979v80.95
			c-12.588,7.416-25.318,14.592-38.187,21.519c-5.669,3.051-0.625,11.688,5.047,8.635c11.154-6.003,22.197-12.203,33.14-18.575
			v189.284l-21.581,10.803c-17.677-10.381-33.779-23.43-47.675-38.769c-4.33-4.78-11.385,2.31-7.071,7.071
			c12.979,14.326,27.882,26.763,44.166,36.994L735.213,566.94l-30.358-23.177c-2.866-2.188-6.842-2.19-9.709,0l-30.358,23.177
			l-168.277-84.239V294.163z M650.633,577.746L414.576,757.961v-208.84c-0.001-0.04,0.001-0.079,0-0.119V462.73
			c0.068-0.097,0.188-0.201,0.333-0.306c0.074-0.047,0.15-0.092,0.223-0.142c0.945-0.56,2.805-1.023,4.563-0.142L650.633,577.746z
			 M480.511,395.313v79.379l-51.936-25.999L480.511,395.313z M384.278,323.787l53.618,92.382l-13.952,14.34l-46.489-80.093
			L384.278,323.787z M303.991,290.97c3.505,1.513,7.652,1.415,11.208-0.648c3.557-2.065,5.699-5.619,6.123-9.415l55.639,31.146
			l-8.369,32.665l-21.675-7.208c-1.359-0.451-2.848-0.299-4.087,0.42s-2.111,1.936-2.393,3.341l-4.493,22.395l-32.509-8.935
			L303.991,290.97z M398.576,519.531l-88.581-152.627l26.495,7.282l62.085,106.964V519.531z M398.636,461.335l-53.571-92.295
			l4.064-20.257l19.599,6.518l47.974,82.652l-11.327,11.642C401.458,452.508,399.023,456.744,398.636,461.335z M983.234,779.11
			H416.766c-1.396,0-2.182-0.433-2.542-0.749c0.021-0.018,0.045-0.035,0.069-0.055L700,560.187l285.707,218.12
			c0.024,0.02,0.048,0.037,0.069,0.055C985.416,778.678,984.631,779.11,983.234,779.11z M1001.364,461.335
			c-0.386-4.591-2.822-8.826-6.738-11.74l-11.327-11.642l47.975-82.652l19.597-6.517l4.064,20.257L1001.364,461.335z
			 M1001.424,519.531V481.15l62.085-106.964l26.495-7.282L1001.424,519.531z M1064.056,363.665l-4.493-22.395
			c-0.282-1.405-1.153-2.622-2.393-3.341c-1.24-0.72-2.728-0.872-4.088-0.42l-21.674,7.208l-8.369-32.666l55.639-31.145
			c0.424,3.796,2.566,7.351,6.123,9.415c3.556,2.064,7.703,2.161,11.208,0.648l0.555,63.761L1064.056,363.665z"/>
		<path fill="#0E1235" d="M436.333,655.333c2.761,0,5-2.238,5-5V519c0-2.762-2.239-5-5-5s-5,2.238-5,5v131.333
			C431.333,653.095,433.572,655.333,436.333,655.333z"/>
		<path fill="#0E1235" d="M436.333,694.667c2.761,0,5-2.238,5-5V673c0-2.762-2.239-5-5-5s-5,2.238-5,5v16.667
			C431.333,692.429,433.572,694.667,436.333,694.667z"/>
		<path fill="#0E1235" d="M863.876,757.333H536.125c-2.761,0-5,2.238-5,5s2.239,5,5,5h327.751c2.762,0,5-2.238,5-5
			S866.638,757.333,863.876,757.333z"/>
		<path fill="#0E1235" d="M630.867,268.588c2.389-0.574,4.016-2.582,4.876-6.024c0-1.721-1.291-2.582-3.873-2.582
			c0.287-1.435-0.43-2.151-2.151-2.151c-2.295-0.287-5.164,0-8.606,0.86c-4.686,1.244-7.602,1.914-8.749,2.008
			c-3.922,1.053-8.033,1.578-12.335,1.578c-4.303,0-8.129-0.574-11.475-1.721c-4.113,2.219-10.327,3.761-18.646,4.628
			c-9.467,0.87-15.729,1.833-18.79,2.893c-0.667,0.771-1.004,1.495-1.004,2.169c0,0.097,0.574,1.399,1.721,3.904
			c2.965,2.508,6.791,3.761,11.475,3.761c2.008,0,5.641-0.381,10.901-1.147c4.59-0.668,8.176-0.908,10.758-0.717
			c0.094,6.885-0.287,16.878-1.147,29.978c-0.861,13.676-1.291,23.667-1.291,29.978c0,3.922,0.094,7.651,0.287,11.188
			c0.19,2.774,1.194,5.283,3.012,7.53c1.815,2.246,4.11,3.418,6.885,3.514c1.434,0.094,2.389-0.623,2.869-2.151
			c0.287-0.957,0.381-2.344,0.287-4.16c-0.193-5.832-0.287-11.762-0.287-17.786c0-15.872,0.955-35.715,2.869-59.525
			C613.845,272.126,624.65,270.119,630.867,268.588z"/>
		<path fill="#0E1235" d="M633.95,300.789c0.621-4.541,0.932-7.864,0.932-9.968c0-2.963-0.383-5.641-1.147-8.033
			c-0.383-1.338-1.483-2.198-3.299-2.582c-2.201-0.478-3.586-1.051-4.16-1.721c-0.193,0.287-1.029,0.574-2.51,0.86
			c-1.484,0.287-2.224,0.957-2.224,2.008c0.094,7.555-0.67,17.739-2.295,30.551c-1.914,15.3-3.012,25.531-3.299,30.695
			c0,0.287-0.072,1.076-0.215,2.367c-0.143,1.291-0.215,2.32-0.215,3.084c0,3.442,1.098,5.737,3.299,6.885
			c3.059,1.625,6.215,1.768,9.467,0.43c0.381-14.724,1.721-25.865,4.016-33.42c1.147-0.381,2.342-0.574,3.586-0.574
			c1.051,0,2.748,0.24,5.092,0.717c2.342,0.479,4.182,0.67,5.522,0.574c0,2.104-0.24,5.116-0.717,9.036
			c-0.48,3.922-0.717,6.838-0.717,8.75c0,1.147-0.072,2.94-0.215,5.379c-0.144,2.438-0.215,4.231-0.215,5.378
			c0,5.832,1.815,9.801,5.451,11.905c0.861,0.477,2.629,0.717,5.307,0.717c0.764,0,1.434-0.312,2.008-0.932
			c0.574-0.623,0.861-1.269,0.861-1.937c-0.193-2.678-0.287-5.5-0.287-8.462c0-9.37,1.195-22.806,3.586-40.305
			c2.582-18.454,3.967-31.937,4.16-40.448c-0.67-2.582-3.539-3.633-8.606-3.156c-2.008,0-3.205,1.674-3.586,5.02
			c-1.817,15.971-3.922,28.974-6.311,39.014c-0.574,0-2.248,0.096-5.02,0.287c-2.104,0.097-3.729,0.049-4.877-0.143
			c-1.721-0.19-3.155-0.717-4.303-1.578C633.018,308.799,633.327,305.332,633.95,300.789z"/>
		<path fill="#0E1235" d="M675.76,363.971c2.486,0.764,4.11,0.287,4.877-1.434c1.528-3.635,3.106-8.942,4.733-15.921
			c1.721-7.553,3.106-12.813,4.16-15.778c2.102-1.815,5.02-2.962,8.749-3.442c3.25-0.287,6.502-0.574,9.754-0.86
			c1.815,4.876,3.394,10.95,4.733,18.216c1.241,6.694,4.207,10.471,8.893,11.332c0.574,0.094,1.672-0.574,3.299-2.008
			c1.625-1.434,2.438-3.106,2.438-5.02c0-1.147-0.286-2.485-0.86-4.016c-5.163-14.63-10.137-33.228-14.917-55.796
			c-0.479-3.919-1.004-7.839-1.578-11.761c-0.767-4.59-2.487-8.033-5.163-10.328c-1.054-0.86-2.248-1.291-3.586-1.291
			c-1.818,0-3.013,0.67-3.586,2.008c-2.487,6.024-5.307,14.68-8.462,25.961c-3.729,13.005-6.455,21.898-8.176,26.679
			c-0.193,0.67-1.076,1.172-2.653,1.506c-1.578,0.336-2.582,0.766-3.012,1.291c-0.43,0.527-0.646,1.029-0.646,1.506
			c0,0.574,0.668,1.387,2.008,2.438c1.338,1.053,1.958,2.008,1.864,2.869c-0.287,2.965-1.864,7.938-4.733,14.917
			c-2.392,6.121-3.443,10.995-3.156,14.63C670.93,361.483,672.604,362.918,675.76,363.971z M701.004,294.263
			c0.86,3.826,1.769,7.651,2.726,11.475c0.954,4.399,1.577,8.368,1.864,11.905c-6.504,0-10.52,0.144-12.048,0.43
			C695.648,310.137,698.136,302.201,701.004,294.263z"/>
		<path fill="#0E1235" d="M734.28,362.967c0.287,1.912,1.052,3.059,2.295,3.442c0.382,0.19,1.291,0.621,2.726,1.291
			c1.051,0.574,1.912,0.86,2.582,0.86c0.764,0,1.481-0.336,2.151-1.004c1.721-1.053,2.532-2.965,2.438-5.737
			c-0.384-7.555-0.574-14.964-0.574-22.232c0-15.107,0.812-29.498,2.438-43.173c0.19-1.338,0.621-2.008,1.291-2.008
			c0.287,0,0.524,0.287,0.717,0.861c9.084,25.531,16.686,44.274,22.807,56.226c2.008,4.016,4.493,6.024,7.458,6.024
			c1.528,0,2.892-0.574,4.088-1.721c1.194-1.147,1.744-2.487,1.649-4.016c-0.192-3.25-0.287-6.548-0.287-9.897
			c0-10.23,0.812-22.996,2.438-38.296c1.242-12.909,2.533-25.769,3.873-38.584c-0.287-0.955-0.91-1.625-1.864-2.008
			c-0.287-0.094-1.197-0.334-2.726-0.717c-1.147-0.287-2.151-0.43-3.012-0.43c-2.488,0-3.873,0.957-4.16,2.869
			c-3.062,25.724-5.307,44.944-6.741,57.66c-3.539-6.501-7.459-16.015-11.762-28.543c-4.496-13.099-8.271-22.566-11.331-28.4
			c-3.155-2.582-5.547-3.776-7.172-3.585c-3.442,0-5.213,1.053-5.307,3.155c-0.192,2.488-1.197,15.3-3.012,38.44
			c-1.147,15.204-1.722,27.875-1.722,38.01c0,5.834,0.144,11.425,0.431,16.782C734.087,359.859,734.184,361.437,734.28,362.967z"/>
		<path fill="#0E1235" d="M800.258,300c0,3.348-0.097,8.344-0.287,14.989c-0.192,6.647-0.286,11.643-0.286,14.989
			c0,9.276,0.573,17.355,1.721,24.24c0.381,2.485,1.815,4.16,4.303,5.02c0.287,0.668,1.004,1.004,2.151,1.004
			c1.052,0,1.865-0.193,2.438-0.574c2.009-0.861,3.013-2.438,3.013-4.733c0-0.67-0.097-1.771-0.287-3.299
			c-0.192-1.528-0.287-2.676-0.287-3.442c-0.192-6.598-0.43-11.665-0.717-15.204c13.482,8.032,23.427,14.056,29.834,18.072
			c0.574,0.383,1.099,0.574,1.578,0.574c0.478,0,1.17-0.237,2.079-0.717c0.908-0.478,1.65-0.717,2.224-0.717
			c0.287,0,0.621,0.049,1.004,0.144c0.765-2.295,1.147-3.729,1.147-4.303c0-0.86-0.287-1.528-0.86-2.008
			c-4.59-3.92-10.233-7.983-16.925-12.192c-6.024-3.537-12.002-7.076-17.93-10.614c2.582-4.016,8.463-10.757,17.643-20.224
			c7.839-8.126,13.1-15.155,15.777-21.085c-0.192-2.582-2.151-3.873-5.881-3.873c-1.34,0-2.582,0.24-3.729,0.717
			c-4.208,4.973-8.462,9.897-12.766,14.773c-5.069,5.834-9.563,10.52-13.482,14.057c0.19-7.649-0.431-17.976-1.864-30.981
			c-0.097-1.147-0.813-1.983-2.151-2.51c-1.341-0.524-2.632-0.979-3.873-1.363c-1.244,0.193-2.438,0.383-3.586,0.574
			c-1.53,0.383-2.201,1.147-2.008,2.295C799.588,281.066,800.258,289.865,800.258,300z"/>
		<path fill="#0E1235" d="M643.557,376.85c-1.914,0-3.252,0.67-4.016,2.008c-2.678,4.303-5.117,9.753-7.315,16.352
			c-1.914,5.643-3.826,11.331-5.738,17.068c-2.104-4.876-4.256-9.753-6.454-14.63c-2.582-5.737-5.07-10.421-7.459-14.056
			c-3.442-1.051-5.26-1.578-5.45-1.578c-1.147,0-2.32,0.455-3.514,1.363c-1.197,0.91-1.793,1.889-1.793,2.94
			c0,0.479,0.144,0.957,0.43,1.435c4.781,8.416,10.565,21.708,17.355,39.875c-2.965,7.651-5.93,15.3-8.893,22.949
			c-3.252,8.989-5.021,16.972-5.307,23.954c-0.097,1.434,0.789,2.797,2.653,4.088c1.865,1.291,3.608,1.84,5.235,1.649
			c3.25,0,5.021-1.674,5.307-5.021c0.094-0.86,0.094-2.869,0-6.024c0-2.295,0.238-4.209,0.717-5.737
			c2.389-7.649,7.792-21.562,16.208-41.739c7.171-17.306,12.095-31.363,14.773-42.169C648.481,377.76,646.233,376.85,643.557,376.85
			z"/>
		<path fill="#0E1235" d="M654.745,432.072c0,6.407,1.865,11.618,5.594,15.634c5.544,5.93,11.044,8.893,16.495,8.893
			c1.241,0,2.485-0.144,3.729-0.431c10.327-2.389,18.31-9.944,23.954-22.662c0.955-2.103,1.434-4.447,1.434-7.028
			c0-4.59-1.674-10.087-5.02-16.495c-1.914-3.633-5.164-6.215-9.753-7.745c-5.834-1.912-9.419-3.442-10.758-4.59
			c-1.34-1.147-2.774-1.721-4.303-1.721c-2.678,0-5.5,1.484-8.463,4.447c-2.582,2.488-4.782,5.45-6.598,8.893
			C656.847,417.394,654.745,424.997,654.745,432.072z M671.383,416.725c0.19-0.191,0.43-0.287,0.717-0.287
			c0.381,0,1.194,0.43,2.438,1.291c1.241,0.86,2.198,1.147,2.869,0.86c1.051-0.381,2.532-1.672,4.446-3.873
			c1.721-1.912,3.156-2.869,4.303-2.869c0.381,0,0.811,0.096,1.291,0.287c3.059,1.34,4.924,5.5,5.594,12.479
			c0.477,4.303-1.147,8.942-4.877,13.913c-3.922,5.26-7.985,7.889-12.192,7.889c-1.817,0-4.065-1.958-6.741-5.881
			c-1.914-2.869-2.869-6.358-2.869-10.471C666.363,424.039,668.035,419.593,671.383,416.725z"/>
		<path fill="#0E1235" d="M755.289,383.161c-2.581,0-4.399,1.148-5.45,3.443c-0.67,1.434-1.244,4.016-1.721,7.745
			c-0.48,3.729-1.054,6.264-1.722,7.602c-2.295,4.783-4.353,11.38-6.168,19.794c-2.295,11.094-3.826,17.882-4.59,20.368
			c-2.295,7.458-5.45,13.436-9.466,17.929c-1.531-5.641-2.392-9.467-2.582-11.475c-0.287-3.92-0.43-8.27-0.43-13.053
			c0-4.494,0.237-11.809,0.717-21.945c0.381-9.467,0.524-16.638,0.43-21.515c-1.053-0.574-2.129-1.123-3.228-1.649
			c-1.1-0.524-2.129-0.789-3.083-0.789c-4.59,0-6.885,2.965-6.885,8.893c0,6.885,0.047,9.85,0.143,8.893
			c-1.34,10.997-2.008,19.986-2.008,26.965c0,12.145,1.815,22.712,5.45,31.699c2.103,5.354,5.307,8.08,9.61,8.176
			c4.876,0.094,9.18-2.391,12.909-7.458c5.928-7.936,9.945-16.732,12.049-26.392c0.667-3.156,3.155-12.239,7.458-27.252
			c3.155-11.188,5.067-20.128,5.737-26.822C761.027,384.214,758.636,383.161,755.289,383.161z"/>
		<path fill="#0E1235" d="M781.752,462.91c-1.483-1.147-2.989-1.815-4.518-2.008c-0.861-0.094-2.345,0.551-4.447,1.937
			c-2.104,1.387-3.012,2.748-2.725,4.088c0.668,3.059,3.536,5.544,8.605,7.458c0.382,0.094,0.765-0.049,1.147-0.43
			c0.382-0.383,0.979-0.599,1.793-0.646c0.812-0.049,1.506-0.717,2.08-2.008c0.573-1.291,0.764-2.606,0.573-3.944
			C784.07,465.539,783.234,464.058,781.752,462.91z"/>
		<path fill="#0E1235" d="M787.131,374.985c-1.244,0.479-1.961,1.291-2.151,2.438c-0.384,2.582-2.774,13.483-7.172,32.703
			c-2.868,13.005-4.303,24.003-4.303,32.99c0,2.008,0.047,4.016,0.144,6.024c0.286,3.825,2.868,6.217,7.745,7.171
			c0.86,0.193,1.793-0.072,2.797-0.789c1.004-0.717,1.506-1.506,1.506-2.366c-0.287-9.657,1.435-22.04,5.164-37.149
			c4.303-17.403,6.741-29.451,7.314-36.146c0.095-1.625-0.767-2.819-2.581-3.586c-1.628-0.477-3.252-0.955-4.877-1.434
			C789.57,374.461,788.372,374.508,787.131,374.985z"/>
		<path fill="#0E1235" d="M436,232c6.435,0,6.445-10,0-10C429.565,222,429.555,232,436,232z"/>
		<path fill="#0E1235" d="M958,527c6.435,0,6.445-10,0-10C951.565,517,951.555,527,958,527z"/>
		<path fill="#0E1235" d="M964,252c6.435,0,6.445-10,0-10C957.565,242,957.555,252,964,252z"/>
		<path fill="#0E1235" d="M562.223,430.138c-7.304,3.396-14.608,6.792-21.912,10.189c-5.83,2.711-0.757,11.334,5.047,8.635
			c7.304-3.396,14.608-6.792,21.912-10.189C573.101,436.062,568.028,427.44,562.223,430.138z"/>
		<path fill="#0E1235" d="M521,450c-6.435,0-6.445,10,0,10C527.435,460,527.445,450,521,450z"/>
		<path fill="#0E1235" d="M793,667c6.435,0,6.445-10,0-10C786.565,657,786.555,667,793,667z"/>
		<path fill="#0E1235" d="M783,688c6.435,0,6.445-10,0-10C776.565,678,776.555,688,783,688z"/>
		<path fill="#0E1235" d="M806,686c6.435,0,6.445-10,0-10C799.565,676,799.555,686,806,686z"/>
		<path fill="#0E1235" d="M506,557c6.435,0,6.445-10,0-10C499.565,547,499.555,557,506,557z"/>
		<path fill="#0E1235" d="M730.965,497.913c6.415,0.519,6.381-9.484,0-10c-29.902-2.42-60.006,0.301-89.018,7.926
			c-6.219,1.634-3.582,11.283,2.658,9.643C672.813,498.068,701.898,495.56,730.965,497.913z"/>
		<path fill="#0E1235" d="M742.997,505.534c-16.332-1.603-32.702-1.48-49.008,0.368c-6.322,0.716-6.395,10.725,0,10
			c16.306-1.848,32.676-1.97,49.008-0.368C749.397,516.162,749.353,506.158,742.997,505.534z"/>
	</g>
</g>
<g id="Layer_6">
	<rect fill="#062F3D" width="1400" height="980"/>
	<circle fill="#176EA7" cx="700" cy="490" r="356.198"/>
	<g>
		<path fill="#79CBC4" d="M892.871,402.323L892.871,402.323c0-6.631,5.376-12.007,12.007-12.007h29.802
			c13.304,0,24.089-10.785,24.089-24.089l0,0c0-13.304-10.785-24.089-24.089-24.089H782.012c-6.632,0-12.007-5.376-12.007-12.007
			l0,0c0-6.631,5.376-12.007,12.007-12.007h64.145c9.019,0,16.33-7.311,16.33-16.33v0c0-9.019-7.311-16.33-16.33-16.33H650.252
			c-9.019,0-16.33,7.311-16.33,16.33v0c0,9.019,7.311,16.33,16.33,16.33h37.101c6.631,0,12.007,5.376,12.007,12.007l0,0
			c0,6.631-5.376,12.007-12.007,12.007H492.483c-13.304,0-24.088,10.785-24.088,24.089l0,0c0,13.304,10.785,24.089,24.088,24.089
			h69.478c9.403,0,17.026,7.623,17.026,17.026v0c0,9.403-7.623,17.026-17.026,17.026H419.82c-11.089,0-20.079,8.99-20.079,20.079v0
			c0,11.089,8.99,20.078,20.079,20.078h253.786c11.089,0,20.079-8.99,20.079-20.078v0c0-11.089-8.99-20.079-20.079-20.079h-6.946
			c-9.403,0-17.026-7.623-17.026-17.026v0c0-9.403,7.623-17.026,17.026-17.026h143.559c6.631,0,12.007,5.376,12.007,12.007l0,0
			c0,6.632-5.376,12.007-12.007,12.007h-4.977c-13.861,0-25.098,11.237-25.098,25.098l0,0c0,13.861,11.237,25.098,25.098,25.098
			h243.187c13.861,0,25.098-11.237,25.098-25.098l0,0c0-13.861-11.237-25.098-25.098-25.098h-143.55
			C898.247,414.33,892.871,408.954,892.871,402.323z"/>
		<path fill="#79CBC4" d="M509.504,598.905L509.504,598.905c0-12.816-10.389-23.206-23.205-23.206H234.22
			c-12.816,0-23.205,10.389-23.205,23.205v0c0,12.816,10.389,23.205,23.205,23.205h48.401c9.478,0,17.161,7.683,17.161,17.161v0
			c0,9.478-7.683,17.161-17.161,17.161h-74.919c-10.522,0-19.052,8.53-19.052,19.052v0c0,10.522,8.53,19.051,19.052,19.051h246.881
			c10.522,0,19.052-8.53,19.052-19.051v0c0-10.522-8.53-19.052-19.052-19.052h-24.023c-9.478,0-17.161-7.683-17.161-17.161v0
			c0-9.478,7.683-17.161,17.161-17.161h55.739C499.114,622.11,509.504,611.721,509.504,598.905z"/>
		<path fill="#79CBC4" d="M1211.35,572.845L1211.35,572.845c0-11.898-9.645-21.543-21.543-21.543H964.914
			c-11.898,0-21.543,9.645-21.543,21.543l0,0c0,11.898,9.645,21.543,21.543,21.543h51.929c8.458,0,15.315,6.857,15.315,15.315v0
			c0,8.458-6.857,15.315-15.315,15.315H912.384c-12.429,0-22.505,10.076-22.505,22.505l0,0c0,12.429,10.076,22.505,22.505,22.505
			h245.242c12.429,0,22.505-10.076,22.505-22.505v-1.799c0-11.436-9.271-20.707-20.707-20.707l0,0
			c-8.458,0-15.315-6.857-15.315-15.315v0c0-8.458,6.857-15.315,15.315-15.315h30.383
			C1201.705,594.389,1211.35,584.743,1211.35,572.845z"/>
	</g>
	<circle fill="#C9EAE7" cx="1024.748" cy="230.57" r="20.966"/>
	<circle fill="#C9EAE7" cx="1136.726" cy="334.425" r="40.162"/>
	<circle fill="#C9EAE7" cx="1127.614" cy="219.552" r="9.948"/>
	<circle fill="#C9EAE7" cx="321.178" cy="529.438" r="9.906"/>
	<circle fill="#C9EAE7" cx="324.731" cy="444.765" r="37.321"/>
	<circle fill="#C9EAE7" cx="238.5" cy="516.21" r="17.5"/>
	<circle fill="#C9EAE7" cx="1015.745" cy="759.969" r="29.969"/>
	<circle fill="#C9EAE7" cx="1086.186" cy="728.378" r="10.378"/>
	<circle fill="#C9EAE7" cx="1086.219" cy="549.637" r="17.303"/>
	<circle fill="#C9EAE7" cx="343.433" cy="203.509" r="18.619"/>
	<circle fill="#C9EAE7" cx="357.977" cy="750.512" r="20.9"/>
	<circle fill="#C9EAE7" cx="311.75" cy="700.17" r="12.17"/>
</g>
<g id="Layer_5">
	<g>
		<path fill="#EF4D4E" d="M445.755,431.035l-17.18,17.658l50.782,25.421C472.912,444.891,454.322,434.386,445.755,431.035z"/>
		<path fill="#F09B36" d="M637.297,587.928l-154.046-93.971l-58.918-29.494v286.05L637.297,587.928z M506,547c6.445,0,6.435,10,0,10
			C499.555,557,499.565,547,506,547z M431.333,519c0-2.762,2.239-5,5-5s5,2.238,5,5v131.333c0,2.762-2.239,5-5,5s-5-2.238-5-5V519z
			 M436.333,668c2.761,0,5,2.238,5,5v16.667c0,2.762-2.239,5-5,5s-5-2.238-5-5V673C431.333,670.238,433.572,668,436.333,668z"/>
		<polygon fill="#EFAF3F" points="427.134,427.23 437.896,416.169 384.278,323.787 378.474,346.439 		"/>
		<path fill="#F9E3B2" d="M340.438,341.27c0.282-1.405,1.153-2.622,2.393-3.341c0.655-0.38,1.38-0.591,2.118-0.649
			c-1.354-26.532-15.48-48.021-20.135-54.42l-3.491-1.954c-0.424,3.796-2.566,7.351-6.123,9.415
			c-3.556,2.064-7.702,2.161-11.208,0.648l-0.555,63.761l32.509,8.935L340.438,341.27z M311.75,338.25c-1.934,0-1.93-3,0-3
			C313.684,335.25,313.68,338.25,311.75,338.25z M308.49,329.25c-0.146-4.501-0.292-9.001-0.437-13.502
			c-0.125-3.868,5.875-3.851,6,0c0.146,4.501,0.292,9.001,0.437,13.502C314.616,333.119,308.615,333.102,308.49,329.25z"/>
		<path fill="#EF4D4E" d="M920.643,474.114l50.782-25.421l-17.18-17.658C945.678,434.386,927.088,444.891,920.643,474.114z"/>
		<polygon fill="#EFAF3F" points="1021.526,346.438 1015.722,323.786 962.104,416.168 972.866,427.23 		"/>
		<path fill="#F9E3B2" d="M553.733,327.959c-20.225-9.224-39.412-20.582-57.222-33.795V368.5c36.83,0,73.66,0,110.489,0
			c5.801,0,5.791,9,0,9c-36.83,0-73.66,0-110.489,0v38.79c8.882,4.885,25.628,13.107,50.094,21.111
			c5.206-2.421,10.413-4.842,15.619-7.262c5.805-2.699,10.877,5.924,5.047,8.635c-2.142,0.996-4.284,1.992-6.426,2.988
			c14.268,4.079,30.644,7.917,49.105,11.013c0.249-0.73,0.492-1.456,0.761-2.199c2.962-7.649,5.928-15.298,8.893-22.949
			c-6.791-18.167-12.575-31.459-17.355-39.875c-0.287-0.478-0.43-0.955-0.43-1.435c0-1.051,0.596-2.03,1.793-2.94
			c1.194-0.908,2.367-1.363,3.514-1.363c0.19,0,2.008,0.527,5.45,1.578c2.389,3.635,4.877,8.319,7.459,14.056
			c2.198,4.877,4.35,9.754,6.454,14.63c1.912-5.737,3.824-11.425,5.738-17.068c2.198-6.598,4.637-12.049,7.315-16.352
			c0.764-1.338,2.102-2.008,4.016-2.008c2.676,0,4.924,0.91,6.741,2.726c-2.678,10.807-7.602,24.863-14.773,42.169
			c-5.84,14.002-10.226,24.98-13.164,32.949C645.325,457.947,671.209,460,700,460c4.254,0,8.443-0.046,12.571-0.133
			c-2.206-7.546-3.323-16.037-3.323-25.5c0-6.979,0.668-15.968,2.008-26.965c-0.096,0.957-0.143-2.008-0.143-8.893
			c0-5.928,2.295-8.893,6.885-8.893c0.955,0,1.983,0.265,3.083,0.789c1.098,0.527,2.174,1.076,3.228,1.649
			c0.094,4.877-0.049,12.048-0.43,21.515c-0.48,10.137-0.717,17.452-0.717,21.945c0,4.783,0.144,9.133,0.43,13.053
			c0.183,1.932,0.994,5.565,2.418,10.861c0.236-0.01,0.469-0.023,0.705-0.034c3.755-4.417,6.736-10.167,8.925-17.282
			c0.764-2.486,2.295-9.274,4.59-20.368c1.815-8.414,3.873-15.011,6.168-19.794c0.668-1.338,1.241-3.873,1.722-7.602
			c0.477-3.729,1.051-6.311,1.721-7.745c1.051-2.295,2.869-3.443,5.45-3.443c3.347,0,5.737,1.054,7.172,3.156
			c-0.67,6.694-2.582,15.634-5.737,26.822c-4.303,15.013-6.791,24.097-7.458,27.252c-1.395,6.403-3.649,12.418-6.724,18.063
			c12.18-0.899,23.711-2.157,34.586-3.686c-2.122-1.274-3.293-3.143-3.479-5.627c-0.097-2.008-0.144-4.017-0.144-6.024
			c0-8.987,1.435-19.984,4.303-32.99c4.397-19.22,6.788-30.121,7.172-32.703c0.19-1.147,0.907-1.958,2.151-2.438
			c1.241-0.478,2.438-0.524,3.586-0.144c1.625,0.479,3.249,0.957,4.877,1.434c1.814,0.767,2.676,1.961,2.581,3.586
			c-0.573,6.694-3.012,18.743-7.314,36.146c-3.729,15.11-5.451,27.492-5.164,37.149c0,0.114-0.032,0.224-0.05,0.336
			c62.815-9.944,102.323-28.667,117.843-37.203V370.5c-8.163,0-16.326,0-24.489,0c-5.801,0-5.791-9,0-9c8.163,0,16.326,0,24.489,0
			v-68.082c-10.943,6.371-21.986,12.571-33.14,18.575c-5.672,3.053-10.716-5.583-5.047-8.635
			c12.869-6.927,25.599-14.102,38.187-21.519v-80.95H496.511v80.658c19.151,14.941,40.033,27.635,62.27,37.776
			C564.634,321.994,559.546,330.61,553.733,327.959z M857,250.5c5.801,0,5.791,9,0,9C851.199,259.5,851.209,250.5,857,250.5z
			 M831,237.5c5.801,0,5.791,9,0,9C825.199,246.5,825.209,237.5,831,237.5z M832,269.5c-5.801,0-5.791-9,0-9
			C837.801,260.5,837.791,269.5,832,269.5z M800.258,271.313c1.147-0.19,2.342-0.381,3.586-0.574
			c1.241,0.383,2.532,0.838,3.873,1.363c1.338,0.527,2.055,1.363,2.151,2.51c1.434,13.005,2.055,23.333,1.864,30.981
			c3.92-3.537,8.413-8.223,13.482-14.057c4.304-4.876,8.558-9.8,12.766-14.773c1.147-0.478,2.39-0.717,3.729-0.717
			c3.729,0,5.688,1.291,5.881,3.873c-2.678,5.93-7.938,12.958-15.777,21.085c-9.18,9.467-15.061,16.208-17.643,20.224
			c5.928,3.539,11.905,7.078,17.93,10.614c6.691,4.208,12.335,8.272,16.925,12.192c0.573,0.479,0.86,1.147,0.86,2.008
			c0,0.574-0.383,2.008-1.147,4.303c-0.383-0.094-0.717-0.144-1.004-0.144c-0.573,0-1.315,0.24-2.224,0.717
			c-0.909,0.479-1.602,0.717-2.079,0.717c-0.479,0-1.004-0.19-1.578-0.574c-6.407-4.016-16.352-10.04-29.834-18.072
			c0.287,3.539,0.524,8.606,0.717,15.204c0,0.767,0.095,1.914,0.287,3.442c0.19,1.529,0.287,2.629,0.287,3.299
			c0,2.295-1.004,3.873-3.013,4.733c-0.573,0.381-1.387,0.574-2.438,0.574c-1.147,0-1.864-0.336-2.151-1.004
			c-2.487-0.86-3.922-2.535-4.303-5.02c-1.147-6.885-1.721-14.964-1.721-24.24c0-3.346,0.094-8.342,0.286-14.989
			c0.19-6.645,0.287-11.641,0.287-14.989c0-10.135-0.67-18.934-2.008-26.392C798.057,272.46,798.728,271.696,800.258,271.313z
			 M735.285,303.442c1.814-23.14,2.819-35.953,3.012-38.44c0.094-2.102,1.864-3.155,5.307-3.155
			c1.625-0.191,4.017,1.004,7.172,3.585c3.06,5.834,6.835,15.301,11.331,28.4c4.303,12.528,8.223,22.042,11.762,28.543
			c1.435-12.716,3.68-31.937,6.741-57.66c0.287-1.912,1.672-2.869,4.16-2.869c0.86,0,1.864,0.143,3.012,0.43
			c1.528,0.383,2.438,0.623,2.726,0.717c0.954,0.383,1.577,1.053,1.864,2.008c-1.34,12.815-2.631,25.675-3.873,38.584
			c-1.627,15.3-2.438,28.066-2.438,38.296c0,3.349,0.095,6.647,0.287,9.897c0.095,1.529-0.455,2.869-1.649,4.016
			c-1.196,1.147-2.56,1.721-4.088,1.721c-2.965,0-5.45-2.008-7.458-6.024c-6.121-11.952-13.723-30.695-22.807-56.226
			c-0.192-0.574-0.43-0.861-0.717-0.861c-0.67,0-1.101,0.67-1.291,2.008c-1.627,13.675-2.438,28.066-2.438,43.173
			c0,7.268,0.19,14.677,0.574,22.232c0.094,2.772-0.718,4.684-2.438,5.737c-0.67,0.668-1.388,1.004-2.151,1.004
			c-0.67,0-1.531-0.287-2.582-0.86c-1.435-0.67-2.344-1.101-2.726-1.291c-1.243-0.383-2.008-1.531-2.295-3.442
			c-0.096-1.531-0.192-3.108-0.286-4.733c-0.287-5.356-0.431-10.948-0.431-16.782C733.563,331.318,734.137,318.646,735.285,303.442z
			 M681.067,320.511c1.721-4.78,4.446-13.673,8.176-26.679c3.156-11.282,5.975-19.937,8.462-25.961
			c0.574-1.338,1.769-2.008,3.586-2.008c1.338,0,2.532,0.43,3.586,1.291c2.676,2.295,4.396,5.738,5.163,10.328
			c0.574,3.922,1.099,7.842,1.578,11.761c4.78,22.568,9.754,41.166,14.917,55.796c0.574,1.531,0.86,2.869,0.86,4.016
			c0,1.914-0.813,3.586-2.438,5.02c-1.627,1.435-2.725,2.103-3.299,2.008c-4.686-0.861-7.651-4.637-8.893-11.332
			c-1.34-7.266-2.918-13.339-4.733-18.216c-3.252,0.287-6.504,0.574-9.754,0.86c-3.729,0.48-6.647,1.627-8.749,3.442
			c-1.054,2.965-2.438,8.225-4.16,15.778c-1.627,6.979-3.205,12.286-4.733,15.921c-0.767,1.721-2.391,2.198-4.877,1.434
			c-3.155-1.053-4.83-2.488-5.02-4.303c-0.287-3.635,0.764-8.51,3.156-14.63c2.869-6.979,4.446-11.952,4.733-14.917
			c0.094-0.861-0.526-1.815-1.864-2.869c-1.34-1.051-2.008-1.865-2.008-2.438c0-0.478,0.215-0.979,0.646-1.506
			c0.43-0.524,1.434-0.955,3.012-1.291C679.991,321.683,680.874,321.181,681.067,320.511z M674,229.5c5.801,0,5.791,9,0,9
			C668.199,238.5,668.209,229.5,674,229.5z M676.116,395.926c1.528,0,2.963,0.574,4.303,1.721c1.338,1.148,4.924,2.678,10.758,4.59
			c4.59,1.53,7.839,4.112,9.753,7.745c3.346,6.408,5.02,11.905,5.02,16.495c0,2.582-0.479,4.926-1.434,7.028
			c-5.644,12.718-13.626,20.273-23.954,22.662c-1.244,0.287-2.488,0.431-3.729,0.431c-5.451,0-10.951-2.963-16.495-8.893
			c-3.729-4.016-5.594-9.227-5.594-15.634c0-7.075,2.102-14.677,6.311-22.806c1.815-3.442,4.016-6.405,6.598-8.893
			C670.616,397.41,673.438,395.926,676.116,395.926z M657.115,268.588c5.067-0.478,7.936,0.574,8.606,3.156
			c-0.193,8.512-1.578,21.995-4.16,40.448c-2.391,17.499-3.586,30.935-3.586,40.305c0,2.963,0.094,5.784,0.287,8.462
			c0,0.668-0.287,1.313-0.861,1.937c-0.574,0.621-1.244,0.932-2.008,0.932c-2.678,0-4.446-0.24-5.307-0.717
			c-3.635-2.104-5.451-6.074-5.451-11.905c0-1.147,0.072-2.94,0.215-5.378c0.144-2.438,0.215-4.231,0.215-5.379
			c0-1.912,0.237-4.828,0.717-8.75c0.477-3.92,0.717-6.932,0.717-9.036c-1.34,0.096-3.18-0.094-5.522-0.574
			c-2.344-0.478-4.041-0.717-5.092-0.717c-1.244,0-2.438,0.193-3.586,0.574c-2.295,7.555-3.635,18.696-4.016,33.42
			c-3.252,1.338-6.408,1.194-9.467-0.43c-2.201-1.147-3.299-3.442-3.299-6.885c0-0.764,0.072-1.793,0.215-3.084
			c0.144-1.291,0.215-2.08,0.215-2.367c0.287-5.164,1.385-15.395,3.299-30.695c1.625-12.813,2.389-22.997,2.295-30.551
			c0-1.051,0.74-1.721,2.224-2.008c1.481-0.287,2.317-0.574,2.51-0.86c0.574,0.67,1.959,1.244,4.16,1.721
			c1.815,0.383,2.916,1.244,3.299,2.582c0.764,2.392,1.147,5.07,1.147,8.033c0,2.104-0.312,5.428-0.932,9.968
			c-0.623,4.543-0.932,8.01-0.932,10.399c1.147,0.861,2.582,1.388,4.303,1.578c1.147,0.192,2.772,0.24,4.877,0.143
			c2.772-0.19,4.446-0.287,5.02-0.287c2.389-10.041,4.494-23.043,6.311-39.014C653.91,270.262,655.106,268.588,657.115,268.588z
			 M527,228.5c39.333,0,78.667,0,118,0c5.801,0,5.791,9,0,9c-39.333,0-78.667,0-118,0C521.199,237.5,521.209,228.5,527,228.5z
			 M551.835,274.15c-1.147-2.505-1.721-3.808-1.721-3.904c0-0.674,0.336-1.398,1.004-2.169c3.062-1.06,9.323-2.023,18.79-2.893
			c8.319-0.867,14.534-2.409,18.646-4.628c3.346,1.147,7.171,1.721,11.475,1.721c4.303,0,8.413-0.524,12.335-1.578
			c1.147-0.094,4.063-0.765,8.749-2.008c3.443-0.86,6.312-1.147,8.606-0.86c1.721,0,2.438,0.717,2.151,2.151
			c2.582,0,3.873,0.86,3.873,2.582c-0.86,3.442-2.488,5.451-4.876,6.024c-6.217,1.531-17.022,3.539-32.416,6.024
			c-1.914,23.81-2.869,43.653-2.869,59.525c0,6.024,0.094,11.954,0.287,17.786c0.094,1.815,0,3.203-0.287,4.16
			c-0.48,1.528-1.435,2.246-2.869,2.151c-2.775-0.096-5.07-1.269-6.885-3.514c-1.817-2.248-2.821-4.756-3.012-7.53
			c-0.193-3.537-0.287-7.266-0.287-11.188c0-6.312,0.43-16.302,1.291-29.978c0.86-13.1,1.242-23.093,1.147-29.978
			c-2.582-0.19-6.167,0.049-10.758,0.717c-5.26,0.767-8.893,1.147-10.901,1.147C558.625,277.911,554.8,276.658,551.835,274.15z"/>
		<path fill="#F9E3B2" d="M675.973,446.415c4.207,0,8.27-2.629,12.192-7.889c3.729-4.971,5.354-9.61,4.877-13.913
			c-0.67-6.979-2.535-11.139-5.594-12.479c-0.479-0.19-0.91-0.287-1.291-0.287c-1.147,0-2.582,0.957-4.303,2.869
			c-1.914,2.201-3.396,3.492-4.446,3.873c-0.67,0.287-1.627,0-2.869-0.86c-1.244-0.861-2.058-1.291-2.438-1.291
			c-0.287,0-0.527,0.096-0.717,0.287c-3.348,2.869-5.02,7.315-5.02,13.339c0,4.113,0.955,7.602,2.869,10.471
			C671.907,444.456,674.155,446.415,675.973,446.415z"/>
		<path fill="#F9E3B2" d="M703.73,305.737c-0.957-3.824-1.865-7.649-2.726-11.475c-2.869,7.938-5.356,15.874-7.458,23.81
			c1.528-0.287,5.544-0.43,12.048-0.43C705.307,314.105,704.684,310.137,703.73,305.737z"/>
		<path fill="#F09B36" d="M916.748,493.957l-15.584,9.506c10.586,4.78,21.602,8.672,32.946,11.582
			c6.239,1.601,3.579,11.243-2.658,9.643c-14.013-3.595-27.589-8.646-40.519-14.984l-128.23,78.223l212.964,162.585v-286.05
			L916.748,493.957z M958,527c-6.445,0-6.435-10,0-10C964.445,517,964.435,527,958,527z"/>
		<polygon fill="#EFAF3F" points="331.084,372.7 309.996,366.904 398.576,519.531 398.576,485.307 		"/>
		<path fill="#FDF14D" d="M405.375,449.594l11.327-11.642L368.728,355.3l-19.599-6.518l-2.437,12.146l55.531,91.704
			C403.13,451.518,404.173,450.488,405.375,449.594z M374.333,385.167c-1.934,0-1.93-3,0-3
			C376.267,382.167,376.264,385.167,374.333,385.167z M385.18,406.412c-1.17-3.425-2.886-6.598-5.144-9.43
			c-1.193-1.495,0.918-3.63,2.121-2.121c2.596,3.255,4.569,6.812,5.916,10.754C388.7,407.448,385.801,408.228,385.18,406.412z
			 M397.667,431.167c-1.934,0-1.93-3,0-3C399.6,428.167,399.597,431.167,397.667,431.167z"/>
		<path fill="#F9E3B2" d="M1084.801,290.321c-3.557-2.065-5.699-5.619-6.123-9.415l-3.491,1.954
			c-4.655,6.399-18.781,27.888-20.135,54.42c0.738,0.058,1.463,0.269,2.118,0.649c1.239,0.719,2.11,1.936,2.393,3.341l4.493,22.395
			l32.508-8.935l-0.555-63.761C1092.504,292.482,1088.357,292.385,1084.801,290.321z M1088.25,338.25c-1.934,0-1.93-3,0-3
			C1090.184,335.25,1090.18,338.25,1088.25,338.25z M1091.51,329.25c-0.125,3.858-6.125,3.862-6,0
			c0.146-4.501,0.292-9.001,0.437-13.502c0.125-3.858,6.125-3.862,6,0C1091.801,320.249,1091.656,324.75,1091.51,329.25z"/>
		<polygon fill="#EFAF3F" points="1001.424,485.307 1001.424,519.531 1090.004,366.904 1068.916,372.7 		"/>
		<path fill="#F4BB3A" d="M700,560.187l-55.065,42.039L438.928,779.11h522.144L755.065,602.225L700,560.187z M700,596.029
			c16.749,0,30.375,13.626,30.375,30.375S716.749,656.779,700,656.779s-30.375-13.626-30.375-30.375S683.251,596.029,700,596.029z
			 M868.876,762.333c0,2.762-2.238,5-5,5H536.125c-2.761,0-5-2.238-5-5s2.239-5,5-5h327.751
			C866.638,757.333,868.876,759.571,868.876,762.333z M806,676c6.445,0,6.435,10,0,10C799.555,686,799.565,676,806,676z M793,657
			c6.445,0,6.435,10,0,10C786.555,667,786.565,657,793,657z M783,678c6.445,0,6.435,10,0,10C776.555,688,776.565,678,783,678z"/>
		<path fill="#FDF14D" d="M1031.273,355.3l-47.975,82.652l11.327,11.642c1.201,0.894,2.244,1.924,3.151,3.039l55.531-91.704
			l-2.437-12.147L1031.273,355.3z M1002.333,431.167c-1.934,0-1.93-3,0-3C1004.267,428.167,1004.264,431.167,1002.333,431.167z
			 M1019.964,396.982c-2.258,2.832-3.974,6.005-5.144,9.43c-0.622,1.819-3.519,1.033-2.893-0.797
			c1.347-3.941,3.32-7.499,5.916-10.754C1019.047,393.351,1021.156,395.487,1019.964,396.982z M1025.667,385.167
			c-1.934,0-1.93-3,0-3C1027.6,382.167,1027.597,385.167,1025.667,385.167z"/>
		<path fill="#EF4D4E" d="M700,643.779c9.581,0,17.375-7.794,17.375-17.375s-7.794-17.375-17.375-17.375
			c-9.581,0-17.375,7.794-17.375,17.375S690.419,643.779,700,643.779z M693.667,622.667c3.867,0,3.861,6,0,6
			C689.8,628.667,689.806,622.667,693.667,622.667z"/>
		<path fill="#C9BB9D" d="M726.714,459.394c-0.236,0.011-0.468,0.024-0.705,0.034c0.056,0.208,0.106,0.4,0.164,0.613
			C726.358,459.834,726.532,459.608,726.714,459.394z"/>
		<path fill="#C9BB9D" d="M784.191,455.523c-1.004,0.717-1.937,0.982-2.797,0.789c-1.71-0.335-3.121-0.857-4.266-1.544
			c-10.875,1.529-22.405,2.787-34.586,3.686c-1.564,2.871-3.327,5.653-5.325,8.329c-3.729,5.067-8.032,7.553-12.909,7.458
			c-4.303-0.096-7.508-2.822-9.61-8.176c-0.803-1.985-1.501-4.06-2.127-6.198C708.443,459.954,704.255,460,700,460
			c-28.791,0-54.675-2.053-77.64-5.307c-1.296,3.515-2.313,6.449-3.044,8.79c-0.479,1.528-0.717,3.442-0.717,5.737
			c0.094,3.155,0.094,5.164,0,6.024c-0.287,3.346-2.057,5.021-5.307,5.021c-1.627,0.19-3.371-0.359-5.235-1.649
			c-1.865-1.291-2.75-2.654-2.653-4.088c0.263-6.404,1.788-13.661,4.546-21.755c-18.461-3.095-34.837-6.934-49.105-11.013
			c-5.162,2.4-10.324,4.801-15.487,7.201c-5.805,2.699-10.877-5.924-5.047-8.635c2.098-0.975,4.195-1.951,6.293-2.926
			c-24.465-8.004-41.212-16.226-50.094-21.111v66.412l168.277,84.239l30.358-23.177c2.867-2.19,6.843-2.188,9.709,0l30.358,23.177
			l136.115-68.139c-16.284-10.232-31.187-22.669-44.166-36.994c-4.314-4.762,2.741-11.851,7.071-7.071
			c13.897,15.339,29.999,28.387,47.675,38.769l21.581-10.803V416.29c-15.52,8.536-55.027,27.258-117.843,37.203
			C785.531,454.222,785.061,454.901,784.191,455.523z M521,460c-6.445,0-6.435-10,0-10C527.445,450,527.435,460,521,460z
			 M644.605,505.482c-6.24,1.64-8.877-8.008-2.658-9.643c29.012-7.625,59.116-10.346,89.018-7.926c6.381,0.516,6.415,10.519,0,10
			C701.898,495.56,672.813,498.068,644.605,505.482z M742.997,515.534c-16.332-1.603-32.702-1.48-49.008,0.368
			c-6.395,0.725-6.322-9.284,0-10c16.306-1.848,32.676-1.971,49.008-0.368C749.353,506.158,749.397,516.162,742.997,515.534z
			 M783.689,471.301c-0.574,1.291-1.269,1.959-2.08,2.008c-0.813,0.047-1.411,0.262-1.793,0.646
			c-0.383,0.381-0.766,0.524-1.147,0.43c-5.069-1.914-7.938-4.399-8.605-7.458c-0.287-1.34,0.621-2.701,2.725-4.088
			c2.103-1.385,3.586-2.031,4.447-1.937c1.528,0.193,3.034,0.861,4.518,2.008c1.481,1.147,2.317,2.629,2.51,4.446
			C784.453,468.694,784.262,470.01,783.689,471.301z"/>
		<path fill="#B33A3B" d="M479.357,474.114l1.154,0.578v-79.379l-34.756,35.723C454.322,434.386,472.912,444.891,479.357,474.114z"
			/>
		<path fill="#FFFFFF" d="M346.693,360.929l-1.627,8.111l53.571,92.295c0.268-3.182,1.539-6.182,3.588-8.701L346.693,360.929z"/>
		<polygon fill="#FFFFFF" points="398.576,481.15 336.491,374.186 331.084,372.7 398.576,485.307 		"/>
		<polygon fill="#FDF14D" points="377.455,350.416 423.944,430.509 427.134,427.23 378.474,346.439 		"/>
		<path fill="#EFAF3F" d="M374.333,382.167c-1.93,0-1.934,3,0,3C376.264,385.167,376.267,382.167,374.333,382.167z"/>
		<path fill="#EFAF3F" d="M382.157,394.861c-1.204-1.509-3.314,0.626-2.121,2.121c2.258,2.832,3.974,6.005,5.144,9.43
			c0.621,1.817,3.52,1.036,2.893-0.797C386.726,401.673,384.753,398.115,382.157,394.861z"/>
		<path fill="#EFAF3F" d="M397.667,428.167c-1.93,0-1.934,3,0,3C399.597,431.167,399.6,428.167,397.667,428.167z"/>
		<path fill="#BBAA85" d="M346.917,337.509l21.675,7.208l8.369-32.665l-52.148-29.191c4.655,6.4,18.781,27.888,20.135,54.42
			C345.607,337.229,346.276,337.296,346.917,337.509z"/>
		<path fill="#FFFFFF" d="M308.053,315.748c0.146,4.501,0.292,9.001,0.437,13.502c0.125,3.851,6.125,3.868,6,0
			c-0.146-4.501-0.292-9.001-0.437-13.502C313.928,311.897,307.928,311.88,308.053,315.748z"/>
		<path fill="#FFFFFF" d="M311.75,335.25c-1.93,0-1.934,3,0,3C313.68,338.25,313.684,335.25,311.75,335.25z"/>
		<path fill="#FFFFFF" d="M424.333,464.463l-4.639-2.322c-1.758-0.881-3.618-0.418-4.563,0.142c-0.073,0.05-0.148,0.094-0.223,0.142
			c-0.145,0.105-0.264,0.21-0.333,0.306v86.272c0.001,0.04-0.001,0.079,0,0.119v208.84l9.757-7.449V464.463z"/>
		<polygon fill="#B25D25" points="650.633,577.746 483.251,493.957 637.297,587.928 		"/>
		<path fill="#F09B36" d="M414.293,778.307c-0.024,0.02-0.048,0.037-0.069,0.055c0.36,0.316,1.146,0.749,2.542,0.749h22.162
			l206.007-176.885L414.293,778.307z"/>
		<path fill="#B33A3B" d="M954.245,431.035l-34.756-35.723v79.38l1.154-0.578C927.088,444.891,945.678,434.386,954.245,431.035z"/>
		<path fill="#FFFFFF" d="M1001.364,461.335l53.571-92.295l-1.627-8.11l-55.531,91.704
			C999.824,455.152,1001.096,458.152,1001.364,461.335z"/>
		<polygon fill="#FFFFFF" points="1063.509,374.186 1001.424,481.15 1001.424,485.307 1068.916,372.7 		"/>
		<polygon fill="#FDF14D" points="976.056,430.509 1022.545,350.416 1021.526,346.438 972.866,427.23 		"/>
		<path fill="#EFAF3F" d="M1025.667,382.167c-1.93,0-1.934,3,0,3C1027.597,385.167,1027.6,382.167,1025.667,382.167z"/>
		<path fill="#EFAF3F" d="M1017.843,394.861c-2.596,3.255-4.569,6.813-5.916,10.754c-0.626,1.831,2.271,2.617,2.893,0.797
			c1.17-3.425,2.886-6.598,5.144-9.43C1021.156,395.487,1019.047,393.351,1017.843,394.861z"/>
		<path fill="#EFAF3F" d="M1002.333,428.167c-1.93,0-1.934,3,0,3C1004.264,431.167,1004.267,428.167,1002.333,428.167z"/>
		<path fill="#BBAA85" d="M1023.039,312.051l8.369,32.666l21.674-7.208c0.642-0.213,1.311-0.28,1.97-0.229
			c1.354-26.532,15.48-48.021,20.135-54.42L1023.039,312.051z"/>
		<path fill="#FFFFFF" d="M1085.947,315.748c-0.146,4.501-0.292,9.001-0.437,13.502c-0.125,3.862,5.875,3.858,6,0
			c0.146-4.501,0.292-9.001,0.437-13.502C1092.072,311.886,1086.072,311.891,1085.947,315.748z"/>
		<path fill="#FFFFFF" d="M1088.25,335.25c-1.93,0-1.934,3,0,3C1090.18,338.25,1090.184,335.25,1088.25,335.25z"/>
		<path fill="#FFFFFF" d="M985.084,462.42c-0.07-0.045-0.142-0.087-0.211-0.134c-0.943-0.561-2.807-1.026-4.567-0.145l-4.639,2.322
			v286.05l9.757,7.449v-208.84c0.001-0.04-0.001-0.079,0-0.119V462.73C985.355,462.632,985.232,462.526,985.084,462.42z"/>
		<path fill="#B25D25" d="M899.37,502.656c0.595,0.276,1.197,0.537,1.795,0.807l15.584-9.506L899.37,502.656z"/>
		<path fill="#B25D25" d="M888.087,508.305l-138.719,69.442l13.336,10.181l128.23-78.223
			C889.984,509.239,889.029,508.784,888.087,508.305z"/>
		<path fill="#F09B36" d="M755.065,602.225L961.072,779.11h22.162c1.396,0,2.182-0.433,2.542-0.749
			c-0.021-0.018-0.045-0.035-0.069-0.055L755.065,602.225z"/>
		<path fill="#FFFFFF" d="M693.667,628.667c3.861,0,3.867-6,0-6C689.806,622.667,689.8,628.667,693.667,628.667z"/>
		<path fill="#C9BB9D" d="M831,246.5c5.791,0,5.801-9,0-9C825.209,237.5,825.199,246.5,831,246.5z"/>
		<path fill="#C9BB9D" d="M832,260.5c-5.791,0-5.801,9,0,9C837.791,269.5,837.801,260.5,832,260.5z"/>
		<path fill="#C9BB9D" d="M857,259.5c5.791,0,5.801-9,0-9C851.209,250.5,851.199,259.5,857,259.5z"/>
		<path fill="#C9BB9D" d="M645,228.5c-39.333,0-78.667,0-118,0c-5.791,0-5.801,9,0,9c39.333,0,78.667,0,118,0
			C650.791,237.5,650.801,228.5,645,228.5z"/>
		<path fill="#C9BB9D" d="M674,238.5c5.791,0,5.801-9,0-9C668.209,229.5,668.199,238.5,674,238.5z"/>
		<path fill="#C9BB9D" d="M879,370.5c8.163,0,16.326,0,24.489,0v-9c-8.163,0-16.326,0-24.489,0
			C873.209,361.5,873.199,370.5,879,370.5z"/>
		<path fill="#C9BB9D" d="M607,368.5c-36.83,0-73.66,0-110.489,0v9c36.83,0,73.66,0,110.489,0
			C612.791,377.5,612.801,368.5,607,368.5z"/>
		<path fill="#0E1235" d="M700,656.779c16.749,0,30.375-13.626,30.375-30.375S716.749,596.029,700,596.029
			s-30.375,13.626-30.375,30.375S683.251,656.779,700,656.779z M700,609.029c9.581,0,17.375,7.794,17.375,17.375
			s-7.794,17.375-17.375,17.375c-9.581,0-17.375-7.794-17.375-17.375S690.419,609.029,700,609.029z"/>
		<path fill="#0E1235" d="M1111.72,257.65c-0.024-2.827-1.539-5.43-3.984-6.849c-2.446-1.419-5.458-1.442-7.923-0.062l-87.25,48.84
			c-1.252,0.701-2.292,1.725-3.012,2.965l-59.034,101.715l-31.028-31.891v-88.432c9.206-5.564,18.335-11.255,27.381-17.081
			c5.393-3.473,0.385-12.133-5.047-8.635c-7.389,4.758-14.839,9.419-22.334,14.003V192.89c0-4.418-3.582-8-8-8H488.511
			c-4.418,0-8,3.582-8,8v75.269c-9.407-8.415-18.333-17.397-26.686-26.946c-4.245-4.853-11.294,2.244-7.071,7.071
			c10.411,11.9,21.716,22.975,33.757,33.17v90.915l-31.028,31.891l-59.034-101.715c-0.72-1.241-1.76-2.265-3.011-2.965l-87.25-48.84
			c-2.467-1.38-5.479-1.357-7.924,0.062c-2.444,1.419-3.959,4.023-3.983,6.849l-0.87,99.99c-0.013,1.434,0.36,2.845,1.081,4.085
			l110.085,189.68v222.759c0,4.946,0.256,9.046,0.256,9.046c2.406,7.117,9.613,11.899,17.934,11.899h566.468
			c8.32,0,15.527-4.781,17.934-11.898c0,0,0.256-6.212,0.256-9.047V551.406l110.085-189.68c0.72-1.24,1.093-2.651,1.081-4.085
			L1111.72,257.65z M983.234,779.11h-22.162H438.928h-22.162c-1.396,0-2.182-0.433-2.542-0.749c0.021-0.018,0.045-0.035,0.069-0.055
			l230.642-176.081L700,560.187l55.065,42.039l230.642,176.081c0.024,0.02,0.048,0.037,0.069,0.055
			C985.416,778.678,984.631,779.11,983.234,779.11z M1054.934,369.04l-53.571,92.295c-0.268-3.182-1.539-6.182-3.588-8.701
			c-0.906-1.115-1.949-2.145-3.151-3.039l-11.327-11.642l47.975-82.652l19.597-6.517l2.437,12.147L1054.934,369.04z
			 M971.425,448.693l-50.782,25.421l-1.154,0.578v-79.38l34.756,35.723L971.425,448.693z M345.066,369.04l1.627-8.111l2.437-12.146
			l19.599,6.518l47.974,82.652l-11.327,11.642c-1.201,0.894-2.244,1.924-3.151,3.039c-2.048,2.519-3.32,5.519-3.588,8.701
			L345.066,369.04z M414.576,549.121c-0.001-0.04,0.001-0.079,0-0.119V462.73c0.068-0.097,0.188-0.201,0.333-0.306
			c0.074-0.047,0.15-0.092,0.223-0.142c0.945-0.56,2.805-1.023,4.563-0.142l4.639,2.322l58.918,29.494l167.382,83.79l-13.336,10.181
			L424.333,750.512l-9.757,7.449V549.121z M480.511,474.692l-1.154-0.578l-50.782-25.421l17.18-17.658l34.756-35.723V474.692z
			 M985.424,549.002c-0.001,0.04,0.001,0.079,0,0.119v208.84l-9.757-7.449L762.703,587.928l-13.336-10.181l138.719-69.442
			c0.942,0.479,1.897,0.934,2.847,1.4c12.93,6.338,26.506,11.389,40.519,14.984c6.237,1.6,8.898-8.042,2.658-9.643
			c-11.344-2.91-22.36-6.802-32.946-11.582c-0.598-0.27-1.2-0.531-1.795-0.807l17.379-8.7l58.918-29.494l4.639-2.322
			c1.76-0.881,3.624-0.416,4.567,0.145c0.069,0.047,0.141,0.089,0.211,0.134c0.148,0.107,0.271,0.213,0.34,0.311V549.002z
			 M1015.722,323.786l5.804,22.653l1.019,3.978l-46.489,80.093l-3.19-3.279l-10.762-11.061L1015.722,323.786z M558.78,319.324
			c-22.236-10.141-43.119-22.835-62.27-37.776V200.89h406.979v80.95c-12.588,7.416-25.318,14.592-38.187,21.519
			c-5.669,3.051-0.625,11.688,5.047,8.635c11.154-6.003,22.197-12.203,33.14-18.575V361.5v9v45.79v66.412l-21.581,10.803
			c-17.677-10.381-33.779-23.43-47.675-38.769c-4.33-4.78-11.385,2.31-7.071,7.071c12.979,14.326,27.882,26.763,44.166,36.994
			L735.213,566.94l-30.358-23.177c-2.866-2.188-6.842-2.19-9.709,0l-30.358,23.177l-168.277-84.239V416.29V377.5v-9v-74.337
			c17.81,13.214,36.998,24.571,57.222,33.795C559.546,330.61,564.634,321.994,558.78,319.324z M437.896,416.169l-10.762,11.061
			l-3.19,3.279l-46.489-80.093l1.019-3.978l5.804-22.652L437.896,416.169z M303.991,290.97c3.505,1.513,7.652,1.415,11.208-0.648
			c3.557-2.065,5.699-5.619,6.123-9.415l3.491,1.954l52.148,29.191l-8.369,32.665l-21.675-7.208c-0.641-0.213-1.31-0.28-1.969-0.228
			c-0.738,0.058-1.463,0.269-2.118,0.649c-1.24,0.719-2.111,1.936-2.393,3.341l-4.493,22.395l-32.509-8.935L303.991,290.97z
			 M309.996,366.904l21.088,5.796l5.407,1.486l62.085,106.964v4.156v34.225L309.996,366.904z M1001.424,519.531v-34.225v-4.156
			l62.085-106.964l5.407-1.486l21.089-5.796L1001.424,519.531z M1064.056,363.665l-4.493-22.395
			c-0.282-1.405-1.153-2.622-2.393-3.341c-0.655-0.381-1.38-0.591-2.118-0.649c-0.659-0.052-1.328,0.016-1.97,0.229l-21.674,7.208
			l-8.369-32.666l52.148-29.191l3.491-1.954c0.424,3.796,2.566,7.351,6.123,9.415c3.556,2.064,7.703,2.161,11.208,0.648
			l0.555,63.761L1064.056,363.665z"/>
		<path fill="#0E1235" d="M436.333,655.333c2.761,0,5-2.238,5-5V519c0-2.762-2.239-5-5-5s-5,2.238-5,5v131.333
			C431.333,653.095,433.572,655.333,436.333,655.333z"/>
		<path fill="#0E1235" d="M436.333,694.667c2.761,0,5-2.238,5-5V673c0-2.762-2.239-5-5-5s-5,2.238-5,5v16.667
			C431.333,692.429,433.572,694.667,436.333,694.667z"/>
		<path fill="#0E1235" d="M531.125,762.333c0,2.762,2.239,5,5,5h327.751c2.762,0,5-2.238,5-5s-2.238-5-5-5H536.125
			C533.363,757.333,531.125,759.571,531.125,762.333z"/>
		<path fill="#0E1235" d="M574.21,276.764c4.59-0.668,8.176-0.908,10.758-0.717c0.094,6.885-0.287,16.878-1.147,29.978
			c-0.861,13.676-1.291,23.667-1.291,29.978c0,3.922,0.094,7.651,0.287,11.188c0.19,2.774,1.194,5.283,3.012,7.53
			c1.815,2.246,4.11,3.418,6.885,3.514c1.434,0.094,2.389-0.623,2.869-2.151c0.287-0.957,0.381-2.344,0.287-4.16
			c-0.193-5.832-0.287-11.762-0.287-17.786c0-15.872,0.955-35.715,2.869-59.525c15.394-2.486,26.199-4.494,32.416-6.024
			c2.389-0.574,4.016-2.582,4.876-6.024c0-1.721-1.291-2.582-3.873-2.582c0.287-1.435-0.43-2.151-2.151-2.151
			c-2.295-0.287-5.164,0-8.606,0.86c-4.686,1.244-7.602,1.914-8.749,2.008c-3.922,1.053-8.033,1.578-12.335,1.578
			c-4.303,0-8.129-0.574-11.475-1.721c-4.113,2.219-10.327,3.761-18.646,4.628c-9.467,0.87-15.729,1.833-18.79,2.893
			c-0.667,0.771-1.004,1.495-1.004,2.169c0,0.097,0.574,1.399,1.721,3.904c2.965,2.508,6.791,3.761,11.475,3.761
			C565.318,277.911,568.951,277.53,574.21,276.764z"/>
		<path fill="#0E1235" d="M642.198,312.909c-2.104,0.097-3.729,0.049-4.877-0.143c-1.721-0.19-3.155-0.717-4.303-1.578
			c0-2.389,0.309-5.856,0.932-10.399c0.621-4.541,0.932-7.864,0.932-9.968c0-2.963-0.383-5.641-1.147-8.033
			c-0.383-1.338-1.483-2.198-3.299-2.582c-2.201-0.478-3.586-1.051-4.16-1.721c-0.193,0.287-1.029,0.574-2.51,0.86
			c-1.484,0.287-2.224,0.957-2.224,2.008c0.094,7.555-0.67,17.739-2.295,30.551c-1.914,15.3-3.012,25.531-3.299,30.695
			c0,0.287-0.072,1.076-0.215,2.367c-0.143,1.291-0.215,2.32-0.215,3.084c0,3.442,1.098,5.737,3.299,6.885
			c3.059,1.625,6.215,1.768,9.467,0.43c0.381-14.724,1.721-25.865,4.016-33.42c1.147-0.381,2.342-0.574,3.586-0.574
			c1.051,0,2.748,0.24,5.092,0.717c2.342,0.479,4.182,0.67,5.522,0.574c0,2.104-0.24,5.116-0.717,9.036
			c-0.48,3.922-0.717,6.838-0.717,8.75c0,1.147-0.072,2.94-0.215,5.379c-0.144,2.438-0.215,4.231-0.215,5.378
			c0,5.832,1.815,9.801,5.451,11.905c0.861,0.477,2.629,0.717,5.307,0.717c0.764,0,1.434-0.312,2.008-0.932
			c0.574-0.623,0.861-1.269,0.861-1.937c-0.193-2.678-0.287-5.5-0.287-8.462c0-9.37,1.195-22.806,3.586-40.305
			c2.582-18.454,3.967-31.937,4.16-40.448c-0.67-2.582-3.539-3.633-8.606-3.156c-2.008,0-3.205,1.674-3.586,5.02
			c-1.817,15.971-3.922,28.974-6.311,39.014C646.644,312.622,644.97,312.718,642.198,312.909z"/>
		<path fill="#0E1235" d="M674.756,324.814c0,0.574,0.668,1.387,2.008,2.438c1.338,1.053,1.958,2.008,1.864,2.869
			c-0.287,2.965-1.864,7.938-4.733,14.917c-2.392,6.121-3.443,10.995-3.156,14.63c0.19,1.815,1.865,3.25,5.02,4.303
			c2.486,0.764,4.11,0.287,4.877-1.434c1.528-3.635,3.106-8.942,4.733-15.921c1.721-7.553,3.106-12.813,4.16-15.778
			c2.102-1.815,5.02-2.962,8.749-3.442c3.25-0.287,6.502-0.574,9.754-0.86c1.815,4.876,3.394,10.95,4.733,18.216
			c1.241,6.694,4.207,10.471,8.893,11.332c0.574,0.094,1.672-0.574,3.299-2.008c1.625-1.434,2.438-3.106,2.438-5.02
			c0-1.147-0.286-2.485-0.86-4.016c-5.163-14.63-10.137-33.228-14.917-55.796c-0.479-3.919-1.004-7.839-1.578-11.761
			c-0.767-4.59-2.487-8.033-5.163-10.328c-1.054-0.86-2.248-1.291-3.586-1.291c-1.818,0-3.013,0.67-3.586,2.008
			c-2.487,6.024-5.307,14.68-8.462,25.961c-3.729,13.005-6.455,21.898-8.176,26.679c-0.193,0.67-1.076,1.172-2.653,1.506
			c-1.578,0.336-2.582,0.766-3.012,1.291C674.971,323.834,674.756,324.336,674.756,324.814z M701.004,294.263
			c0.86,3.826,1.769,7.651,2.726,11.475c0.954,4.399,1.577,8.368,1.864,11.905c-6.504,0-10.52,0.144-12.048,0.43
			C695.648,310.137,698.136,302.201,701.004,294.263z"/>
		<path fill="#0E1235" d="M734.28,362.967c0.287,1.912,1.052,3.059,2.295,3.442c0.382,0.19,1.291,0.621,2.726,1.291
			c1.051,0.574,1.912,0.86,2.582,0.86c0.764,0,1.481-0.336,2.151-1.004c1.721-1.053,2.532-2.965,2.438-5.737
			c-0.384-7.555-0.574-14.964-0.574-22.232c0-15.107,0.812-29.498,2.438-43.173c0.19-1.338,0.621-2.008,1.291-2.008
			c0.287,0,0.524,0.287,0.717,0.861c9.084,25.531,16.686,44.274,22.807,56.226c2.008,4.016,4.493,6.024,7.458,6.024
			c1.528,0,2.892-0.574,4.088-1.721c1.194-1.147,1.744-2.487,1.649-4.016c-0.192-3.25-0.287-6.548-0.287-9.897
			c0-10.23,0.812-22.996,2.438-38.296c1.242-12.909,2.533-25.769,3.873-38.584c-0.287-0.955-0.91-1.625-1.864-2.008
			c-0.287-0.094-1.197-0.334-2.726-0.717c-1.147-0.287-2.151-0.43-3.012-0.43c-2.488,0-3.873,0.957-4.16,2.869
			c-3.062,25.724-5.307,44.944-6.741,57.66c-3.539-6.501-7.459-16.015-11.762-28.543c-4.496-13.099-8.271-22.566-11.331-28.4
			c-3.155-2.582-5.547-3.776-7.172-3.585c-3.442,0-5.213,1.053-5.307,3.155c-0.192,2.488-1.197,15.3-3.012,38.44
			c-1.147,15.204-1.722,27.875-1.722,38.01c0,5.834,0.144,11.425,0.431,16.782C734.087,359.859,734.184,361.437,734.28,362.967z"/>
		<path fill="#0E1235" d="M800.258,300c0,3.348-0.097,8.344-0.287,14.989c-0.192,6.647-0.286,11.643-0.286,14.989
			c0,9.276,0.573,17.355,1.721,24.24c0.381,2.485,1.815,4.16,4.303,5.02c0.287,0.668,1.004,1.004,2.151,1.004
			c1.052,0,1.865-0.193,2.438-0.574c2.009-0.861,3.013-2.438,3.013-4.733c0-0.67-0.097-1.771-0.287-3.299
			c-0.192-1.528-0.287-2.676-0.287-3.442c-0.192-6.598-0.43-11.665-0.717-15.204c13.482,8.032,23.427,14.056,29.834,18.072
			c0.574,0.383,1.099,0.574,1.578,0.574c0.478,0,1.17-0.237,2.079-0.717c0.908-0.478,1.65-0.717,2.224-0.717
			c0.287,0,0.621,0.049,1.004,0.144c0.765-2.295,1.147-3.729,1.147-4.303c0-0.86-0.287-1.528-0.86-2.008
			c-4.59-3.92-10.233-7.983-16.925-12.192c-6.024-3.537-12.002-7.076-17.93-10.614c2.582-4.016,8.463-10.757,17.643-20.224
			c7.839-8.126,13.1-15.155,15.777-21.085c-0.192-2.582-2.151-3.873-5.881-3.873c-1.34,0-2.582,0.24-3.729,0.717
			c-4.208,4.973-8.462,9.897-12.766,14.773c-5.069,5.834-9.563,10.52-13.482,14.057c0.19-7.649-0.431-17.976-1.864-30.981
			c-0.097-1.147-0.813-1.983-2.151-2.51c-1.341-0.524-2.632-0.979-3.873-1.363c-1.244,0.193-2.438,0.383-3.586,0.574
			c-1.53,0.383-2.201,1.147-2.008,2.295C799.588,281.066,800.258,289.865,800.258,300z"/>
		<path fill="#0E1235" d="M608.057,478.616c1.865,1.291,3.608,1.84,5.235,1.649c3.25,0,5.021-1.674,5.307-5.021
			c0.094-0.86,0.094-2.869,0-6.024c0-2.295,0.238-4.209,0.717-5.737c0.731-2.341,1.748-5.276,3.044-8.79
			c2.938-7.969,7.324-18.947,13.164-32.949c7.171-17.306,12.095-31.363,14.773-42.169c-1.817-1.815-4.065-2.726-6.741-2.726
			c-1.914,0-3.252,0.67-4.016,2.008c-2.678,4.303-5.117,9.753-7.315,16.352c-1.914,5.643-3.826,11.331-5.738,17.068
			c-2.104-4.876-4.256-9.753-6.454-14.63c-2.582-5.737-5.07-10.421-7.459-14.056c-3.442-1.051-5.26-1.578-5.45-1.578
			c-1.147,0-2.32,0.455-3.514,1.363c-1.197,0.91-1.793,1.889-1.793,2.94c0,0.479,0.144,0.957,0.43,1.435
			c4.781,8.416,10.565,21.708,17.355,39.875c-2.965,7.651-5.93,15.3-8.893,22.949c-0.269,0.743-0.512,1.469-0.761,2.199
			c-2.758,8.093-4.283,15.351-4.546,21.755C605.307,475.962,606.192,477.325,608.057,478.616z"/>
		<path fill="#0E1235" d="M654.745,432.072c0,6.407,1.865,11.618,5.594,15.634c5.544,5.93,11.044,8.893,16.495,8.893
			c1.241,0,2.485-0.144,3.729-0.431c10.327-2.389,18.31-9.944,23.954-22.662c0.955-2.103,1.434-4.447,1.434-7.028
			c0-4.59-1.674-10.087-5.02-16.495c-1.914-3.633-5.164-6.215-9.753-7.745c-5.834-1.912-9.419-3.442-10.758-4.59
			c-1.34-1.147-2.774-1.721-4.303-1.721c-2.678,0-5.5,1.484-8.463,4.447c-2.582,2.488-4.782,5.45-6.598,8.893
			C656.847,417.394,654.745,424.997,654.745,432.072z M671.383,416.725c0.19-0.191,0.43-0.287,0.717-0.287
			c0.381,0,1.194,0.43,2.438,1.291c1.241,0.86,2.198,1.147,2.869,0.86c1.051-0.381,2.532-1.672,4.446-3.873
			c1.721-1.912,3.156-2.869,4.303-2.869c0.381,0,0.811,0.096,1.291,0.287c3.059,1.34,4.924,5.5,5.594,12.479
			c0.477,4.303-1.147,8.942-4.877,13.913c-3.922,5.26-7.985,7.889-12.192,7.889c-1.817,0-4.065-1.958-6.741-5.881
			c-1.914-2.869-2.869-6.358-2.869-10.471C666.363,424.039,668.035,419.593,671.383,416.725z"/>
		<path fill="#0E1235" d="M724.308,474.241c4.876,0.094,9.18-2.391,12.909-7.458c1.999-2.676,3.761-5.458,5.325-8.329
			c3.075-5.645,5.329-11.66,6.724-18.063c0.667-3.156,3.155-12.239,7.458-27.252c3.155-11.188,5.067-20.128,5.737-26.822
			c-1.435-2.102-3.825-3.156-7.172-3.156c-2.581,0-4.399,1.148-5.45,3.443c-0.67,1.434-1.244,4.016-1.721,7.745
			c-0.48,3.729-1.054,6.264-1.722,7.602c-2.295,4.783-4.353,11.38-6.168,19.794c-2.295,11.094-3.826,17.882-4.59,20.368
			c-2.189,7.115-5.17,12.865-8.925,17.282c-0.182,0.214-0.356,0.44-0.541,0.647c-0.058-0.213-0.108-0.406-0.164-0.613
			c-1.424-5.296-2.235-8.929-2.418-10.861c-0.287-3.92-0.43-8.27-0.43-13.053c0-4.494,0.237-11.809,0.717-21.945
			c0.381-9.467,0.524-16.638,0.43-21.515c-1.053-0.574-2.129-1.123-3.228-1.649c-1.1-0.524-2.129-0.789-3.083-0.789
			c-4.59,0-6.885,2.965-6.885,8.893c0,6.885,0.047,9.85,0.143,8.893c-1.34,10.997-2.008,19.986-2.008,26.965
			c0,9.463,1.117,17.954,3.323,25.5c0.625,2.139,1.324,4.214,2.127,6.198C716.8,471.419,720.005,474.145,724.308,474.241z"/>
		<path fill="#0E1235" d="M781.752,462.91c-1.483-1.147-2.989-1.815-4.518-2.008c-0.861-0.094-2.345,0.551-4.447,1.937
			c-2.104,1.387-3.012,2.748-2.725,4.088c0.668,3.059,3.536,5.544,8.605,7.458c0.382,0.094,0.765-0.049,1.147-0.43
			c0.382-0.383,0.979-0.599,1.793-0.646c0.812-0.049,1.506-0.717,2.08-2.008c0.573-1.291,0.764-2.606,0.573-3.944
			C784.07,465.539,783.234,464.058,781.752,462.91z"/>
		<path fill="#0E1235" d="M784.191,455.523c0.871-0.622,1.34-1.301,1.456-2.031c0.018-0.112,0.05-0.221,0.05-0.336
			c-0.287-9.657,1.435-22.04,5.164-37.149c4.303-17.403,6.741-29.451,7.314-36.146c0.095-1.625-0.767-2.819-2.581-3.586
			c-1.628-0.477-3.252-0.955-4.877-1.434c-1.147-0.381-2.345-0.334-3.586,0.144c-1.244,0.479-1.961,1.291-2.151,2.438
			c-0.384,2.582-2.774,13.483-7.172,32.703c-2.868,13.005-4.303,24.003-4.303,32.99c0,2.008,0.047,4.016,0.144,6.024
			c0.186,2.484,1.357,4.353,3.479,5.627c1.146,0.688,2.557,1.21,4.266,1.544C782.254,456.505,783.187,456.24,784.191,455.523z"/>
		<path fill="#0E1235" d="M436,232c6.435,0,6.445-10,0-10C429.565,222,429.555,232,436,232z"/>
		<path fill="#0E1235" d="M958,517c-6.435,0-6.445,10,0,10C964.435,527,964.445,517,958,517z"/>
		<path fill="#0E1235" d="M964,252c6.435,0,6.445-10,0-10C957.565,242,957.555,252,964,252z"/>
		<path fill="#0E1235" d="M545.358,448.962c5.162-2.4,10.324-4.801,15.487-7.201c2.142-0.996,4.284-1.992,6.426-2.988
			c5.83-2.711,0.757-11.334-5.047-8.635c-5.206,2.421-10.413,4.842-15.619,7.262c-2.098,0.975-4.195,1.951-6.293,2.926
			C534.481,443.038,539.554,451.661,545.358,448.962z"/>
		<path fill="#0E1235" d="M521,450c-6.435,0-6.445,10,0,10C527.435,460,527.445,450,521,450z"/>
		<path fill="#0E1235" d="M793,667c6.435,0,6.445-10,0-10C786.565,657,786.555,667,793,667z"/>
		<path fill="#0E1235" d="M783,688c6.435,0,6.445-10,0-10C776.565,678,776.555,688,783,688z"/>
		<path fill="#0E1235" d="M806,686c6.435,0,6.445-10,0-10C799.565,676,799.555,686,806,686z"/>
		<path fill="#0E1235" d="M506,557c6.435,0,6.445-10,0-10C499.565,547,499.555,557,506,557z"/>
		<path fill="#0E1235" d="M730.965,497.913c6.415,0.519,6.381-9.484,0-10c-29.902-2.42-60.006,0.301-89.018,7.926
			c-6.219,1.634-3.582,11.283,2.658,9.643C672.813,498.068,701.898,495.56,730.965,497.913z"/>
		<path fill="#0E1235" d="M742.997,505.534c-16.332-1.603-32.702-1.48-49.008,0.368c-6.322,0.716-6.395,10.725,0,10
			c16.306-1.848,32.676-1.97,49.008-0.368C749.397,516.162,749.353,506.158,742.997,505.534z"/>
	</g>
</g>
</svg>
